<mxfile host="app.diagrams.net" agent="Mozilla/5.0 (Windows NT 10.0; Win64; x64; rv:141.0) Gecko/20100101 Firefox/141.0" version="28.0.7">
  <diagram name="Page-1" id="HcYRXLl6KdnVPswwESVG">
    <mxGraphModel dx="2195" dy="683" grid="1" gridSize="10" guides="1" tooltips="1" connect="1" arrows="1" fold="1" page="1" pageScale="1" pageWidth="850" pageHeight="1100" math="0" shadow="0">
      <root>
        <mxCell id="0" />
        <mxCell id="1" parent="0" />
        <mxCell id="y6JtuTmop7p5IL-v1rAB-7" style="edgeStyle=none;curved=1;rounded=0;orthogonalLoop=1;jettySize=auto;html=1;fontSize=12;startSize=8;endSize=8;" edge="1" parent="1" source="y6JtuTmop7p5IL-v1rAB-1" target="y6JtuTmop7p5IL-v1rAB-2">
          <mxGeometry relative="1" as="geometry" />
        </mxCell>
        <mxCell id="y6JtuTmop7p5IL-v1rAB-1" value="Bacteria Surface Features" style="rounded=0;whiteSpace=wrap;html=1;" vertex="1" parent="1">
          <mxGeometry x="230" y="320" width="120" height="60" as="geometry" />
        </mxCell>
        <mxCell id="y6JtuTmop7p5IL-v1rAB-14" style="edgeStyle=none;curved=1;rounded=0;orthogonalLoop=1;jettySize=auto;html=1;fontSize=12;startSize=8;endSize=8;" edge="1" parent="1" source="y6JtuTmop7p5IL-v1rAB-2" target="y6JtuTmop7p5IL-v1rAB-12">
          <mxGeometry relative="1" as="geometry" />
        </mxCell>
        <mxCell id="y6JtuTmop7p5IL-v1rAB-2" value="Motility" style="rounded=0;whiteSpace=wrap;html=1;" vertex="1" parent="1">
          <mxGeometry x="230" y="200" width="120" height="60" as="geometry" />
        </mxCell>
        <mxCell id="y6JtuTmop7p5IL-v1rAB-13" style="edgeStyle=none;curved=1;rounded=0;orthogonalLoop=1;jettySize=auto;html=1;fontSize=12;startSize=8;endSize=8;" edge="1" parent="1" source="y6JtuTmop7p5IL-v1rAB-3" target="y6JtuTmop7p5IL-v1rAB-12">
          <mxGeometry relative="1" as="geometry" />
        </mxCell>
        <mxCell id="y6JtuTmop7p5IL-v1rAB-3" value="Attachment" style="rounded=0;whiteSpace=wrap;html=1;" vertex="1" parent="1">
          <mxGeometry x="100" y="440" width="120" height="60" as="geometry" />
        </mxCell>
        <mxCell id="y6JtuTmop7p5IL-v1rAB-4" value="Protection" style="rounded=0;whiteSpace=wrap;html=1;" vertex="1" parent="1">
          <mxGeometry x="380" y="440" width="120" height="60" as="geometry" />
        </mxCell>
        <mxCell id="y6JtuTmop7p5IL-v1rAB-5" style="edgeStyle=none;curved=1;rounded=0;orthogonalLoop=1;jettySize=auto;html=1;entryX=0.664;entryY=0.003;entryDx=0;entryDy=0;entryPerimeter=0;fontSize=12;startSize=8;endSize=8;" edge="1" parent="1" source="y6JtuTmop7p5IL-v1rAB-1" target="y6JtuTmop7p5IL-v1rAB-3">
          <mxGeometry relative="1" as="geometry" />
        </mxCell>
        <mxCell id="y6JtuTmop7p5IL-v1rAB-6" style="edgeStyle=none;curved=1;rounded=0;orthogonalLoop=1;jettySize=auto;html=1;entryX=0.417;entryY=0;entryDx=0;entryDy=0;entryPerimeter=0;fontSize=12;startSize=8;endSize=8;" edge="1" parent="1" source="y6JtuTmop7p5IL-v1rAB-1" target="y6JtuTmop7p5IL-v1rAB-4">
          <mxGeometry relative="1" as="geometry" />
        </mxCell>
        <mxCell id="y6JtuTmop7p5IL-v1rAB-8" value="Falgella" style="rounded=0;whiteSpace=wrap;html=1;" vertex="1" parent="1">
          <mxGeometry x="130" y="80" width="120" height="60" as="geometry" />
        </mxCell>
        <mxCell id="y6JtuTmop7p5IL-v1rAB-9" style="edgeStyle=none;curved=1;rounded=0;orthogonalLoop=1;jettySize=auto;html=1;entryX=0.581;entryY=1.044;entryDx=0;entryDy=0;entryPerimeter=0;fontSize=12;startSize=8;endSize=8;" edge="1" parent="1" source="y6JtuTmop7p5IL-v1rAB-2" target="y6JtuTmop7p5IL-v1rAB-8">
          <mxGeometry relative="1" as="geometry" />
        </mxCell>
        <mxCell id="y6JtuTmop7p5IL-v1rAB-11" value="" style="edgeStyle=none;curved=1;rounded=0;orthogonalLoop=1;jettySize=auto;html=1;fontSize=12;startSize=8;endSize=8;" edge="1" parent="1" source="y6JtuTmop7p5IL-v1rAB-10" target="y6JtuTmop7p5IL-v1rAB-8">
          <mxGeometry relative="1" as="geometry" />
        </mxCell>
        <mxCell id="y6JtuTmop7p5IL-v1rAB-10" value="" style="shape=image;verticalLabelPosition=bottom;labelBackgroundColor=default;verticalAlign=top;aspect=fixed;imageAspect=0;image=data:image/png,iVBORw0KGgoAAAANSUhEUgAAAbkAAADcCAYAAADtGt91AAAgAElEQVR4XuxdBWAdVdY+adzbpJ66e5GWllKWUoq7OyzysywUK4sUt+LuvrDAwuLuULRO3d3buLv933fu3PcmadIkbdK+pjOQRt7MnZlz7z3f8RNUiUO8w6OARwGPAh4FPAo0QwoEeSDXDGfVeyWPAh4FPAp4FFAKeCDnLQSPAh4FPAp4FGi2FPBArtlOrfdiHgU8CngU8CjggZy3BjwKeBTwKOBRoNlSwAO5Zju13ot5FPAo4FHAo4AHct4a8CjgUcCjgEeBZksBD+Sa7dR6L+ZRwKOARwGPAh7IeWvAo4BHAY8CHgWaLQU8kGu2U+u9mEcBjwIeBTwKeCDnrQGPAh4FPAp4FGi2FPBArtlOrfdiHgU8CngU8CjggZy3BjwKeBTwKOBRoNlSwAO5Zju13ot5FPAo4FHAo4AHct4a8CjgUcCjgEeBZksBD+Sa7dR6L+ZRwKOARwGPAh7IeWvAo4BHAY8CHgWaLQU8kGu2U+u9mEcBjwIeBTwKeCDnrQGPAh4FPAp4FGi2FPBArtlOrfdiHgU8CngU8CjggZy3BjwKeBTwKOBRoNlSwAO5Zju13ot5FPAo4FHAo4AHct4a8CjgUaD5U6DSecWg5v+q3htWpYAHct6K8CjgUaB5U8ACnH3LnQC6ykozWFCQa5Dq4zfCfZr3hOzat/NAbtfS27ubRwGPAk1OgRrUtqbU5Dj2TgBnk5NjL7+BB3J7+QLwXt+jQHOiQKVUAm/cqFM7+piz3GpY3UhVhmtaOF/b0g1jqaaHcdyaXnMi8B74Lh7I7YGT5j2yRwGPAjVToAIgQ1Ni3XBVOwWrK33zVqbInPmLZOXqNZKbkyPBGLxlfJx079pVRg7bV3p3TdDBeF1lRbm5fxCh0DsCgQIeyAXCLHjP4FHAo8BOU8ANTsUYLTNfJDU9T9Izs6SktAxfpVIBEIqMjJRofLVtnSDtW4dIjIOIvL6srFJCQgxILl6XLm+/97HMmDVXWrQIlsTEVhIXG6NjZGfnSFpKKsaJkEMPOUjOPesUadcyzABdeaW0IBJ6R0BQwAO5gJgG7yE8CngU2BEKVHeHpReKLF+fLSs3JMvm5FTJyS2QopJSxygZJNT0KisBYvjeMi5SkhJjZGDvzvhqL7FhxhRZga+Pvp0uz7zwIgAxSk4/5SQZMXx/adcmQcJD8SHwq7C4QpKT0+SHn3+Rzz//SmJjouT2m66Xkfv2Mq/h+el2ZDqb5BoP5JqErN6gHgU8CjQlBSocECEoleIrLVdkyYpNMm/pWtmUmoe/BUtQSKi6yNRPRx8ZTIgEuIoKXIVfg4MqpEV5gURIsbSOj5AD9h8kQwZ1kP/+93t59dXX5Mgjxspll5wv3dpEbfdV5q9Jl0cff0ZWr1gh9915i4w5cGCV8/kMnouuKVfD9sf2QG730d67c0MoUM/oOGVqlRWOX6ThJqOGhSE05AW8cxtMgWrakJ0bfqe2xSMbCDdj3maZNnuBpGcVSHlQmERExcFcGKJmRTjJdD0EB7eAyTFEKoNCpQwgFxRC02K5BFdigLIiyc9Jl8qyQomLDJVZ0/6Q4444RCZcerLPt6f3tmjlPAi/tXCWGDBWrp1wvyxbskheeOphGdwnycSg6OGAbIMJ4F3QGBTwQK4xqOiN0fQUqC/IkQGCu7SoZ/BBTSlONuLOMDYK/dQCmv4VvTvUQAFnEioxnxbYgnFaEb6WbaqQX6bOkVUbU1VzCw4O1XkvLy2RMJyU0DJWEhAg0q5tgkRFR0lUTJwUAtOmzloqW9OyJCQsVIB9OBczXlEmKVs2yrqVi2X/gT3kzpvOkVaYc7jX1LTZwqJZtUfkM/ErBF/rMyvkH5dfJZ2T2soLj9+JJ8JnUDlru9ab711DAQ/kdg2dvbvsDAVqALi6MI+h3mQ+kOUhuTOgwInuJm45F9OEFAxOxK8w/AyXTJXDD3L4swdyOzODO34tJkH9aA7IcE6T4Xeb8tdamTlvheSVIFAkIlrKAGyV5SUSHxUurVvGSM+uSdKtUweJj8W8wo8WDotjEdbAstUiP/85V7ILSqVFCKCJWp6ugxaSk5UuyRvXSEJUkFx89nEyenB7M+0VtVsGNNDEWWd013343XR5+KGH5dEH7pK/jRjsE7h2nADelTtLAQ/kdpaC3vVNQIG6IMzckgyPEn1BCQIBwPjyC4sRZFAmBUUlkl9QiL8VI6KuXIoReFBcUgKgYwCCsYHxv2CgW1hYiISC2cXGINouoZXEgknGxYRLGzBHMi0eaqXidfpYjlbngV4TzHu1IZ2cM7jRlPQIlpS5K/LkjxnzZMPWLAmLipdyAFA5zI3x0eHSo0sH6dmlo7RvEyPREWaBqC8MXykZIvMXrwTIbZHC8mAJiYwx15aXSwgALgRIl5GWKllpyVKYnSL79Osk//rnGZKIcTQtgcPU4ljjs5VBmgqFsJSJtTj+6onSpWNbeeCO65z145krm36x1H4HD+R2J/W9ezeIAmQmwDJJz66UzJwCSc3IxleOZGTnS05egWRl5UheQQEi3yDVq2+OnAmcBwEHZFDqo8HRogV/B6NDYEIwQsPJu2hSQuS4xERHwswVIx1ax0qPTm2kb/dEiXfQTscj4HkpUA2at3qf7JZtoGHBgeZzem2CNPPrzPUyc+5SKYZGFhwaJhVQz2MigqV3944yuH8PaZsYCtOiCOQZgUtOoqC9pQHcFi5eJ0tWbpSs3CIJjUAKQBD8dWr+NKbEYHxRUUzZskVyszOlvChfwiry5Irzj5OxI/oY2cbJv6vtXWwgDMHw2Tc+lV9+niwvPfMIAlrg+6vj2nrTxztxhyjggdwOkc27qKkpQC3NhnOnw4+yKRk+k/Qs2bw1VTZt2eoAWhEYWhl4YZCEh4dLREQEmBYkatinopC/FAkuFwpmSIAjQBHkysvLoNGVSwk4ZX5BMSTwFlIKeyZ9J0G0W2IAMrzSojyJCq2U7kmtZf9BPWRI/zYSjWdSHw15b1MTYG8c3xWoYcMRKZbMWJ4lf85ZKWu3ZoPwCByB5hYSVCZ9enSS/Qb2kc7tIyQCoJabBz0dkxMaCWEIa2b5yjSZt2AZ1k0uzJ0REhoeDQEFwSdYDAS4CiAizZT0uVVgXSRv3iKlJcUSisnNT98gpx0xXP5+6iH10sZUqHLWxZe/zpUXX3hZHr7vdhnQq8PeOJMB9c4eyAXIdNTPQBcgD9vEj0F/WgayeTduyZPVyHdavzVTtqZmSzaqTRQVFcK0FKwaV+uEBElsFQ/NK15ikKcUFxsl4TA/hgHkmNAbCg2MgKVKgQUn4Bj9c5T282DnzM0tlixogulZ2ZKSlimZeUVgfrw+FGawUikpyoW/rkgG9+0kR44ZJp3ijJk0GOPVEovQxNTZe4bnGvh1xhqZMnupZBXD9xYeoWH/7RJiZMR+A6RP9ziJBLgV5hu1vUUYUgTw++qNJfLXvMWycs0m+GRDJTYuAUIMBR3HdqmmZgfosDjCQ0OgwWH+k5PVLEmzY1HWFhl3QG+5/PxjJRy/V8C0SQtAbYevmhdO+HXOannssSfl1huukRFDe+49Exagb+qB3A5OjDrDcS21hNqWvk8w5Xm6rcyh5gvnWvc59lGak7vHVm13R25YZz3f1xaGoMTOKhXrUypgWlonq9dtlbTMPMmHf62wuFjp3DIuWrp1SZKkDu0ksWWctET2LlxoACQ/cUPAkAhqcLXodx5Ka6ZG4YvRdMrrcBCkynEOrJuCQhcwZ4msWp8s85esldzCComIjMZclUkxgK6iNFeS4Os5+tBhMqRzjIJmiPrq7A1cE2z/toNrq7lfZtaE9VOZyXALeVwLC9YWyeQ/58jaLZlSERwuJRWlEhcdJvsN6StD+iUhwATAg3krL62A5t5CguE7S4OiN3vhOlmE6JLcwhIofdTkodZxh1obMyafO5dpBXyOUABccXGRbNm8UUpREYVBJgS54pytcvCQLjL+olMkJryF+u6Mmbvm3YnLzBrD3b6gJvfSq/LgPbfI4F4dffu9Cj/wEud22TL3QK5epPazZQeefJvSDXDkqfbM2sCLm4DX2K3iAz7nORxZs15PtSecVAXkaDIkgwO6WNMO+JRkwtG2dFW6LFu1HmbJDMnOLwTwsAZgC2hrqBGIYIKO7VtLm4SWEo8aTBoRieuoTamWhp/LYUfkvUw+lANw1OL45Whx7ghJ44czpkd9FgAlhH0dePUGROD9uhjaXZ6EgAlKC5qzEMySmyEdEsLkjGMOksEdo8y4KunUMBPNSVJp5IVGgLEgx/2E2EW9A/9NhaTz2/Q16ntjQBH0J5idw6Qn/G5D4HdLaosEb01tK4fGDr8qQmJpmly4IgXCyUoEmOTBNAltPjwS8xqMOTL+1+qTVAlUCoOJu7KyXDZuXCc5OdkQgBiAgjFbVEhOyho59uDBMv6C451UgO3kXmINlKm527zHk699KNOmTpXnn3xQ2sQwId1wjSpg7oFcI6+q2ofzQK4BpLb8jJImqyyUOFoAgvegbZSp+asYPiJGWpXyH7u4yXzBKKOgdkRjw8ZGhklMZJBEw5zG7cfD5gA1N5Cz5CXtKO1qThHApQDfU6A5zVu6CVFvqxEgkKt0Cw8zjCcSNqJ+vbvJAHwltkQUJLAG1kOAjQEmSycV0J1f1C/CX/E7ShXqV0lppZRATWMkHZkNmZuNkCRT47n0zWi6Af5pATNlWmYZCvIul3Q8UzBsnpX4vBJMjM9VkpcuvZOi5cKTDxEthGEnznJp+8IeyNWxs1SfUhDjnFGLX7axUL6dPFPWbEgD3eFnAwi1jIuQYfv2l369EiQC+6UEAlFpcbmEI+AE8SOyBqbJWQDE5TBNBsH/SnALVtWeGpv5orDky3V01gjXAjWznJxMlOfarAIP14MKreWI0s3aJOefOEbOPmbUdt/DpqOo7IaL0wDM191wl3RoEy8P3nadATfyAd7XtSZq0wgbwI68U+tJAQ/kaiCU1cbcgENgywPThMtGktMKwAhzJQPRfClpaVLAUHUEL5CZluKrDFqF+gA4gAIdtjJWeTgkz8jwEAmHv6hNqzjp3LGd9OyWBO1AUFrIzy/3/KCGqvqpZWR8L/rbtiIW/K+F62X2opWSmg2CwtbEahSR0JrKENkWHxUifztoP+nfK16ldqRAQWo3QR/kGgQjAhhNksX4PCe/BHNQhJQBpg0USl5+PnxupVqzsBAMsRhzoiCLCwhW5nCka2py/I1mZzyDmUMwLCQWgw2a68wJkPJDJAg2suKsjXLkQQPk+IP7OHlUrkXUXKWUejKUep3mYvgkbQrm98+Zq2Xa3GVqJiYo0WTYv3dXGTa0L1ICguEb9UswmBrV3uYu2iqzIYwUlsBcGWbMkgwoUWhz5tU8j5kUG+VIcONXRnq6ZGSkqEk6GFoY55dSVHF+lkQFFchl5xwjhw3vVwfI+d0WvMvk2evktjvukBuu/YecNG6UykAMbHFrch7A1WuVNNpJHsi5SGmFcgsyBLY0MOTsvFI1o61ev0XSEbqejvLmBdhlJVA91NTFCC2EorNSOcsJUT8jk2S0nppmdJEruzTGGfxeVoIAh7ISad+2FYrDdkSUWFfpHGf0uj2fT5p3NcICpWNTrWIr8GzeklSZtWC5bIEDpQUYUxAkdjozGMrP0O24iCA5BsxhQDcAHkEMIj5dJVCQJa+wUnLziyQrJxdV4PMAboVIHeBXkebCGdMoUwWMaQmTgMADAhXnx8yqyZCzBxknbY4O5NFfo21SCHjGlmkgkW/AKDyGm1dIcW6yxAXny8Wnj4NW50Si2CH3/MlrNOZS00DuKETur/kbC2TylLmyblMGgCpaOwXEIFRy+D79Zd8hHTTSsQh7rQKSDc2LwRB21m2pkD9nzMc1qdD4oiUMaQHlECrL2OaGs6U2ZPtlptiaK3WvYr3lQxBKS0mBdQCRmhA6qVPyX6aR5GelSN/OreT6f5wtnVrZbMmayVJB3x6uDMZaoTZ62dX3wYebJ68896DE4tK6cuyalNje4GbPgzFY0XavJQkJYDKozNbIwmrdklIg67GJCGwp6TmSD5Uht6AIwBWGTRGurDIEdrdgfPE7mSJNYeUQ+2mfZ1IyNx/NLuqH8tk1eBOTn0PWX1SYBy6eJ51aR8hxh41EUEOsPsOerc2RZZBpwKSEd0G1I5m7JFOmzFmKJF6AG+gSFhEFzYwmQEP1IDCLCjCc/r06yyGjugvKCEoqIiqz4BfLAqBl50GwKCqFSRjaGiJFKlhJnmWcyPXoUHMopqZMx9/BaDqClvWjKphZm6aP7W3jrcEnBEl/MIS7TSaj+yrL8mXTqrly/gl/kxMPGeJbOA7GesV4a+Aklslwn1GUS4X29hu0t6mzl0hpORLyQ8OhsRdIj87tZPSIfaVDW6R2UMBBaD8FlFAEf6ChgMxbtBEaHANLKiQyOg77L0yFzVKAYBD3FIUUFSStp8/4Z1tA4GSQSRm0+SxE0mZlIqCFieD03ypQQRwCOJYX50tZfpqce/I4OePI/fVZt2d5dowL+saTnn5bPv30c3nmiQdl5NAeRkBy9r2nve0+eNlrQc5uOpuPRR/RuhQ4obemyyrY9zdsSlYtwZgdkYeFHKzIqEi03oiQeNQKaom+UjFREWqCZMUEbiAuZPatKkLE1xbUxlu5ditMZWD0yO3xGyzMZKvAj03FjcVyRPmostA+PljOP2Wc9G2LkME9+LAbn0Eli9YVybR5K2X5umRBtD6qVMRCGo/QvU8p2ECQYUqMfIyCLy4e1UdKiookD1ytEMBGBkatjBVKqB0brYxXmqg5zYNz62cET7IYR4Ln/NnDJ9EZBc6n1/nO0OLO1tzFk0zoOf/jmKGwo+XnQatfPEvG7N9HrrnkBIl1JBIrx3gxBdsuXmslIcgt3lwiP0+Zh5qTaZhPaGf4W1iLchncr6sMH9pHWqHaTAHSAqiZhTBHAP9v2FpmfG+rNmPdsAhzrOZAcgaL4awtNyqcYxrEynCZCIPVugJrAMwCWVlZaL+Ti1OpnRvxRdcKhJdgGNMLspOlb5dEmXD5OZIU7/jo6tiL+XipJ599Uz786BO5/trxch72sDncELgHb+g9/NGbHcg51qeq4pdLV2UAAiPw7MHq4Ss3FMniVRs0JysNVTTyYQbTXCwkEycgVL1D20RpndhSWiEnKyw8DMEjQQKsU6asDmUGVDghxFQqoOhpYMr7ny1HxOBmhKLHqTnTz2gdI5hqc2YzEOxy0zdKrw5RCGoYKx1i2fvK0U8CPYhBQcWYJGm+JUtJBQF+mboOGtw6Sc8tkfCYlpC6w8GQYOIlZDhI4DbjUrtlodwi+NVaICIuDI44+slM+LdDBHxTE5HLBGXULmt2NDlNCl/V0Ka6yUKhSwHMPzPWzKXPwvfBvWiGVj4IcK2A/2bz5rVSmp8hEaiK0QpzfdjBI+SYw0dKtDPFisn2cQN97pqAgVmzscIH5kCDjfAFm4X8NjcFADcHtSPLJL5lopQjkiQeQHbgfgOlf48EYo36VUMgCIUiOCsHgtG8JZs1OCkL64jWkSBEnFDwoIlbg1cw94yMtZCiXShoeqQPlfTHRspBjmVGRhq0RaQWYB4JfJx7dSWw6kkwrCo5aRIdUizjLz5DRg5sr0uK5ktj+DS+NyeERanGMmM//DxD3vvfB7J54yYZf8VlcsaxY5wdvX0NsAnI7g1ZCwWaF8ipdqDCd1WTkWMtVCbs5LJQc1u4LFPmL1sjazelSWZuISTHCnT6Rd3C1q3g7E6QpPZt0Dm4FbS2IK1qzqMIm86W8LHKApOOuQE4PjcbcBKAmYaQZphV8suwYU24uV32ZsOYPCFTjcOYPkMBjVtWL5Cxw3shsmuUSTVw3ieQVzCrhbCALp+Xfomlm8rlx9/nyMp1KdDcWmoBXQaN+C2Fbs3LsBANFnf8WT7ot6hEkHMhlEZJuqRkQ0PDrAww+U9WjHGjmwt0lLZVjFH2RGhsiNAjmJrahiHKGEsQAbMleYsU5GUiCblcYoKLYWmGVrd8sfTq1lmu/uelMnxQN/M2FHp0jv3m00Cew8Z8NiNkOOvdEeQ2YcP98PtSmblolZS3CNdqNMUF2dKrS3sFuKTEMAlWHyz2C3xyIYgjWb+1Uqb+tVCWrdmMSMpIzVu0+jelKQNqphEqzZD0tYUgUVL94KA7OxIUwyKQDe0tPw+5jsi1Y4CJ/Y/MgGsnFEhWnI9yXgXpcuHpR8vxhw02Uc9WWMFYzKNkhgDXeCrQ7Yeff5evvvteVq9ZI0MHD5BL/36+DOvXWd+a2qoVo/dCGacxl1KjjNW8QM4yNNfK8vFJh1zZWLiLV2XJXEiGq9dt0bD/MojeUdh0zMfq0T1JOnVojSK9JtSdkhyZYTnD0BFBWclcmlCz2lndHulcKAwMYMsqQqRllqSi9NTW1Az1IwlMMWzvwfqJZTzZp7dtC3LUHKKQ1Lpq4UxJjCyWiVf/XbokhhttLiB3iqEstRYCHCV1asU/Tt+ACvFLkeuGNICYVnCXISWAjMgVam9Du/0r2ICcFU6qalxGlHaDkfo4LRt1a2ukE8GU/+k1BmhqOxxMrQqCerIRQBikwLqGPIph6kpOSUXVlSwIQqiGUpghncGYL7/obMlITZGnnnpK1q1ZLTdef62cfuzf9Brzzjve265RdvhuGIRCDw/1keH7shSRT777Q1ZsTJeI2JZK10r4oYeipc1Bw/oi2RqWD6yXSkhC4TRP4ve5S7Jlysz5koogr8jollqOy/jcDHyY6iXm4P1MRRLWI0XQF+auEJVxCG4FqGXKDgVBUBEZYKLI5fjIrcmytCBHSvJT5YwTxsnZx4/g7X2HmtUdcONbffbTTHnjzXckE2MPHTxIjj/+GBk1YoAgfdMIubo2aZkx5tCA3Lq7YU3szls2K5CzmoLle0bSMwdNJSvXF0IyXCRrN6chUg+tNrAQw4BkSUg0Hty/D0AuXs2QCHo0OV1M8MSCZUUFWqw0dB2ghpKHkoqwyy0p6Ug+zdZiwUUIVS8C4jFPztRSjHAky1Adyxf8YHUQuwP0IQ0zLczNkuT1y6RFUYpcdenpMma/3iYEOUA3izETGRjZDIT7evJ8aMbrwaRiYLKNUrOSMSU6Nh+dCX8giB9+/CBXM1dwKOBc4NbUTK8uM8s67wQ5p9SJ/YQ+thqQzAFPsz78IOqsGtXAjB8nLz9P8hD4wrQEAmg4+vIwwrJPx2i58coLNV+O0v39Dz0hP0+eLHfffoucdMRIHVcrZTjovbcEH1hrCjWaOSsL5YsfpyLhHwW2omMBPnlIoSmXEch9Gza0i7Y4KoCzlmXUIqNawKLCNjorZeHytVhbCPJC4Bb7xGkAkarHZi1ZLY401qhmmpJB61L4xPOgtWVlZapgQtrTSqL6FYBO/b/qC2d5N+TD5UFoganytGMPk5OP3E9TedyH5SH0Lz/05Gvy+ZffyKFjDpEzTzlRBvbvIggGNvPMfyhY8fHUr+uBXDVS7rZf93yQcxa8ZY4mfwolmRCNxfVHcFu9uRSdgxerf6yojBI6NgWWZRLC9/dFmaBunVpqoiniP/wJy6x7yARkrF7EPkhGZhEKA6erlpYBLS2PxX1h7qCCVoHvauNnZQWa7dT/ZipwGHOKNVlZyDWmNbspOPvFhQXQCJIRVZglpbmbEd01Vs486kCfHhJoEiHfidiljGx1vnz322zZmoFw7MhY0C3MMU/i7R1NSJ9fQcoHPS4dy4BcbWKvScS25l0TyVqFEanfjIWVnQhXFqc0aOerMu+Lbq11q7GqSQVy5Ey4uubcQRsogQ+nHOPxCUNgwiTIBcOulp+5SY4cNVAuPuMoDRXnW9FUe/u9z8kff/whTz06SYYP7mHSGXw0CLRZbES+40iYGsiF96W/6ve/tiA9YJEUlKFqCQCuuCQPFhLkQB64H6IoYcJm9CToG4ECCcA4JIGXypQZC+E+oJmbEbiRRkAE8Rl0xEkoQ7Qlk7Y1IIjaGwOR8J/mR+aiDBwEEs6ZalNM9tclx1lDF3CUyDF+9HLUu8yGMJsj3ZCkev6px8uo/ii/xVWI+9lSc0odZ8oef/Ed+ezzz+W6a8bLSUce7COcukBwYVVrixuCG5HG3lA7RIE9HuRsAQsuRi44altcyPx5U6bI9HmrEHK8UnKLsCFYxw4MMQ69p/YZ0F0G9u2otQ/LUBWDjFRLQhGfcD3yu2F+LEKR4GTZnJyqpsh8aH9BLVDVHmbISrZocXw16o52JDdrrqjVEaSbwmzAUDjzqNfQrJKRlgI/AKT+CmgOmRvklKNGyUUnHbJDk9qUFykjcMRb9nKbtjBdfvxznmTklUsEzEqUuplGYQNRVLtSTcryC/rXqhkRGc3oaLg1PbujpzkBAxAsILGXQZrRjgL4XgbVm2BCMDLIaSQfE4BgTZZ+vbGme+j1GNd+589WSLG+UzMYkv7BHINLsuS6S06XQ/dBuoPBU83pysS6uXz8TdqT7rkn7tFGrIYaLo7ZlBO0m8ZWPymZPS0SeIYvf1spv0xbBLBKBICFSV52OoTJRBl94D4oghAG7Y0mRpq0QwTByEgNSJdZSDEpKkEQCK0gGIcpJtpZG3vL1o2kdsaOE7R80EdKQMtF3mQOCixzhulL5bxzbLfmbOROJPIX5mqaQCtIJgcdMFiOH3ewdIkPMZqYG+CsCoeJm4bmrLfdca9cevEFctaJNnJyNxHau22DKbDHg5yjAyioOfgkyeC+M+dvRlTWGklGm41gmM640Qryc6RT+wQZNXyoJLWj6kbMQw08hK1rDTwIgCnp5bJ5S4asXb9ZtqLTIiuZBPFD7TumFRMVBSupNRh2qmzU7yswf3VCIMynTmCEr+IC/T3Mq8Mmzs7OknT4dDhaBMs8VMBRnroWfp2DAXLGtxMoB2lMhk6pNQc/T566Tv6YuURKBIVw0cbEWJNsErWTYJQ7KFsAACAASURBVGuiO/TwmWwZ/eM+rDnRYSyO1VEldFOLEjlTBDMkCpOxFRTQdAgNi6DERqjaQoeJwKSrK6rSB3gG9HyaYnW8szfkKY6GzXN94GafVc2gJWisuV7GjBgoV190koA/qjavFjHnFp9Pni0PP/Ko3H7z9XLk3/Zv9iCnrWscIZEA9xUA7rdZSxBA0lJ92aVI8h/Qu7McPHKQJMSbCjYEHciLglRUmTVvuaxAM9MWIdinzHtjl28KgtTedG/Z/Dezb6htFxdDc8vLk0L43OzcG1Mh55oL0S9YcSUS3Apy05GeEipDBvREwYHRMrRXa9MYl2vamWOfrm0ZCv5+3+OvyLLlK+Xpxx+QVjCp2sCabdZHoGxU7zmqsZc9OBncApzlWTlYmAtX5Mp0tObYsCVLKqFxscV9CETsspJ86ZaUKGMO2kfzcLjRkA2gPTUzEQ25HuevWLMRWls6NDYkoMKfFIIEVd2N2njTx6mN79oV8GBC4p3cLVt81gWBxkdkGbBjRsUGpQZXgs2qphWawbhJywoQsbdVLkVJoeMPdhKNA2TR0gjIL9bn+/rnJQgOWAsBIh40Zt6bCcc3SGJCx20wiTEXuUDOj3pKV1aAMX9yGJMjBNBsSMmdVeIZJUdgK8LPrCFpyc9KE+rzwkF80nw2ZXIu3clZIBbzFMAcmroLLqlfzh3I4lygb4V3KAazzs9KRn+5rvLPC0+VbgmIh0WwBO9vLag8F1Xf5OZbJ0Gbi5T775ogKLPYrA81UeKLgUcffz9fZsxfBQ0O6QDYE8UQLEcievLA/btpQW2CYQQcWUVYSCvXwUc+eyHM3LkagcsiCzRB0rfGaTAVhBAtqSZL5lEGa6ulzMwMmCcJbmXmHN1/DsCZ8A9jooTwU4Lz8BDStmWUDBnUSw5Ai56hAztob0CeSbOEEY6MNq4Hl6OzlJkKNP66u6Vnzx5y4/jz9WNbxYQ/7y1+1j15AQe+JueOJvGL+Cqx2aAH/nlNOvKypi+SuUvXA9yoWcRqYSkU+0FicY5079xWjjtyqKDpM/KwuDoRLLGlFBGWm2XtBrR1yUJFDYQvMxqQocrq91EFwG/w8kl5zkYwrFvZa7XFbli6kR+ME9qENldqtFcezCv5ADnuXtuZuAymNoIcQ5lbR5cjGfUMGdS1tdlxPpa8a5ealX+4kUvJeMBwqMF99P1y1BlcKVHo09UCgoSJIjSB2VUP40czoGfMdlUOGyEHulBjY6h+ORgTW54U5INOrEEJkFOfmNLKgA1vY5+N/hmNgCStAYpkbJTcyQCN6dExa2IMZWaqHZCBGtmduW98RjLQYPbp0eRyGI5ZQQOfl0MaKi0thPBRrNGvw4b0kTNPOkx6tkFnautGrIaNHPeFt76Rb7/7Th6ZdIv06dp2107cLribzYXjFJJO9MF98dsK+XnafJggE9RsWIZqPsMG95FDRvaExm3M3HDNoZs7TIAzV6HzBIolQKtvgXzICpszSt+rXSYY2HRuhwcdzvFsmCQpGJbDPG00dmfdKSgxgpc1KPm3cvSHS4f2lied2yXIQfsAZAFuA3onaBSw+tE499QWnUCWKkvXteUycivk2htvk4NHj5L/O/e4XUBZ7xaNTYE9D+QcCljpkUx31oIUo72lQpYMjZHw6HitVKJ2eeSeFcHJPByLfOwhnQQR4GitkS0b4dzeuDkVdRAh6cFEwioc1NxYO4+bin4AI9pVZ9zmLzaM3eyzauY3q7eohE+TG1MI0NkatfLoGC/HPbSth5os2afKuQeAJDt5vRw+epBcdckxTqSXfdPGnvq6x3ODXAl9I3jOWWsK5Z3PfpOK0DgJgzBAM6IFuG1Bzi3pOrltzPZ1DmteDGZ4OBklgQ3VKAoQRFAEzU1b52gxXWprnA4mklsWxeAdU5GCIeLFuIbFdcuoGYPZxcDZGoFi2NGoShMBlT0cXxHw9TB8nXNBrZBzXYTERxZ35ncCG83QTgMJFAkOlmhEJEUjrL1H1w7QAgajIkc3ibflDI0sYxZEtWXyyY9z5KWXX5V7b5sgw4f0NG/sYt51Uz+wzzDr3yAcfbPfzlgP3+xcCYmCPRLIVwGAGblPXxm1f09N8FaLPwwjK9dCe0NwyVaGo0IYZTHKSo0pcYipQq0hlAEyaIOYm2wUQ6fvjcJOCHPd1DpgRFBq8wSsctQBy0e0ZHlJLvx/bWUk3BLDBveTft1ifWkBunqcqOn6mBvTciFw3niHjDlktFx81tGBPSne09VIgcAHORtZ4gCBy6Iga4Fw3/86R5au3CSllaEAt5bYX9AGnJqFullQoaKyvBR5cGEoxxUFDSEPlQ9yEekFswmYdCilSEqCCjg0dRk6WdNXbevGDQBWwfQxb0eyZ2AJo75yc1H7EpobtThuXFZTUROLU5lBG46gFU9+ZpokRFYiLP18GdyjlWo1arZxV/zYBQvZ/W68HRkaJd5M+DDf+mSWLN2QLeGxqFZBxkKGoUymJk3OgJzh/0arVc2W5lmnUC7BphSh+aQPmRiDSqiBsdqJ1exskWtVvkgzgB0TezXgBBpWOYpdE9SS2rfVhqrtEltJR0jwLH4dGY4u37hXOLqFW5MU34+Axuo3LOxcgrSPAtTEJMiyDqKmNOJxIwGMibBtx8dGot1PhMCdY96E68XPi6sUZLHT892UZfLYE0/JbTdcKX87YKBzofPptnLTLpjVxr2Fbi28B0Wc35dly4ff/KZJ3tGIiiyEJDkMpsFDR/bRFAGCWA5kj1nz18gC+MnZJy4KOZSMStbOEmofdKwfKpiaqFwKOCzDlQV/QgnqlWqwlgaWsJsEzsOe0X0KH11pQS58f7lIA2qP2pdD4XcfLEmtoOXblefsa92rznp2W6Zro87WzBKZcNPtcvhhY+WiM49sXCJ6o+0SCgQ+yFmuwk2FFc21ygDhWSvy5GdE9W1Oy5VQlPphGSAmjGpkH09SRYw/mygrOqdLwRD5UQikx2DELJtSWybJW8OSXQmm3AxVw4Ito+Z3Yx5TWdY4A/RPBAJro6cWmY8ACZpXWKZKtRIydnO1+VIzGfk2mHxumlQiwfiyc0+Wkw4dYiBBq+kTRNzFhJp+XRiQs6ZGB/jxwAs2FEOL+1XyK1ByKSpOGRSBYnsgZyIUDTNi6TJlSmxCiusYOJCLnKZiaFJWI6SPhSTVOpVqpqK5kTmNoDfmkKYqtuNpAf0hCUFEfXt2lQF9eyKBvy1KsMUC7MBAYZPafu34Haeh233os6SbWJsqx3d/LpPHn3hSbrtpvBw83AG5Hb9twF1p7QsIipQ3PvpRMgsqYYpEHhz6s/WCFnXSUfsLGnkjWtLUnZw+dxGKnW/Vbt3hkTFGH+e20QAuB+CwVynEhFPwxPpITt4KAZFmfWprJuAjjOWFsLd4VTlyfooLc5BIniU9klrLoaMPgPY2GJ0DjIZv9pCjZHOb+vZdTfaZmkm8GWkxN9xylxxz1OFyLszU3rHnUWAPADmzNO2mQoyI/Dhlnfw6faEUg9kybJ3BIaYyiBOIrgzH+MSMecsBH4MsKikaMDRjG/5EbcR8V/Ohw5z9U+rXIV1X6MfGX2R8OwyUYPJwLjoN07dE5qdmORcTtKHtysixsVkmKqg0AxGVY+Tc40ap9EkAMWnTfrDZVcvL70s0cMy0DErW05Zmwx83XYpbRCHgBNGUSl/DPQxVt1VRFKgdkDMRiHhfgD8Tdulzs8nSZEv6tpZeKtCgXBMj7SCcBOGLgd5tEuOlJ0yHQwb0ALh1ldYIb0Qp0doPy9nMkvAf9hpHI9Nfq1udq1/jHsI9rj5z1eM/H/8u73/4oTx4z00yqFfHXTV1TX8f5735jX3g3vpkmixckyIt23RSn1hoZSEA7hDp1wWRk8ko0L10i8xbvAK1KktRICBSm5rSAmBMne5UEtaghE+cAg7+SUlOVh+c9clxbTEghSAXBKGwBJpbOfLu2iXGyJgDh8q40cOlA4oLmRWGqcYG4jiquTlUsd+3FV7dZLNnmRlduTlTJt5xt5x/9plywmEH+k60kdJNT3DvDjtLgYAHOZXGnLdMhvvsy5/myXQ0SgyNaoUk0pYIPmGCrvWf0U9jTjYWewtkRtJ2s2FNMHZ0Kv9GMEy9dpAzG8AyNOpX7EJMRs0IQPaoyoVPicESqrk4haDN+SaKyzxHhfaTY+RXOdrLdElKkJOPHi2HHdBTNRAN08d3jdckQ9j+rtzZNbDN9VVBziS786VnLM+RD7+bLoVB8F86KQPmYktZIxxY+qsvzbERVkAbY8J7LkxZjIwz0WsOJQmWWpbJph8g7Jz0gX+tBbqmJsZFojI8gK1/TxmGPmPAuSqll2omgBuFajjDDXj24xr+5u7mXNN99C4uhLM/3jzpFdmwcb08/chdkhjTvMIruR8ZaPLVr6vkp6kINGnZHmk2Eepv7tezE8Lzu8um9aUyddocpOFkwe0WpQUCtL+iJRYDRSxxHaE0KAhmaKwT+q5zUVCZJmuj5FFINGJQGQo6lxVmo3ZomZolTzhqjHRJgH/bmRw2LOY1fj+uM4RrnswerO2oCnJT5q6QR6CR34DuAqNQpcU79jwKBDTIuQFuNcwin/8wTZauRTUEVLSnRFhRwU7ArETuLFmnRYqfZyEcWTUys6jVnOisYf1WhYM55aYcMDSg5OZ6utuMac5uEjBmVsUgsDEakAEN3IwaLOFsXM2pIeA52mFJUQH6poHJo2FaK/h6Rh2wr4w7dKR0SzTvoHqnakaOYsHn3/6ubKJVZ97X6pN8nkWoHPP2579Jbnm4mogrwFDUiW/rCarGaolj6EeakPnRF1oA7Y1/o4/M9v6yifH0T9IUWZgPCR3fY6JCpV3rONlncF8EewyQ3p1jVGNzMyf7dNv+1U2S2tnZNoSrCfhquNxYczlJTpFg5xxaExghu3x9jlz3r1vk6KPHyviLTvFRcXustYkmsdGH5aszrH7e2iL56Lupkouu3CEo40ZwoWm5NXyYLeMi0KlhE4SZUrSoMqkBrA+r80UNXaVKk+xtgz8o35RDW0/ZinqyWCfGZ2uqB9GDzV1emJupvfwG9+0iJx97qOzbC4nmzhuaepnG/F/bQeHR8AHzvbrvWfcfhS1dw2ZSn3n1Q5kzb47cf/et0j4BtnDv2OMoELAgZwGOS21ZSoV8AYBbnwJfTARsEqwBxNwZB758spdFM2ca1NbvaBZGcajGsXx5XX72U1WOs7+ZOzENgAe1NvrZigFwOQgqMX4nMwYjBWkmsaHsZINMXi0qhOwLMwu7HnfpmIBu4F2glQyQPl3iVGNTc6yLydrx/ObKXb22/A+jOXB4oFRU83jh7Z9kY2apxMYjLN4G6qhfksyL/ju+L8PukdMG+hRBa6PJUZkH6WOckCbcW7U8ghu0PPjZKhGq3xo5Hr1RJHv/of2kb+9uqE6PfEVe55tTPx38s1ldGOE59tMGgFw9SWzWlV1/VlNgV2lzr8eef09+/PFHJA/fL727tdVUFidhoZ53COzTMrBY3/l8PgouZ0sQtDSdWYNcqompz4wRkFpWS431/kBlJZFTKsHgkgZicb+koaxdLoojKGVxbQVM+WHYcxUlyJVE1GS7lpFy+NiRMnb0EElgqys90/xjS3FtSkZXiLUbIFgVqb+YzxEfHye9e/eUNrFV+zQa1mDdAQb0jFBq0lJWbchBZOVEOeXkY+XCM44J7Enxnq5WCgQkyFH7gjdLJa4VyZXy0Ve/SjLadYeiRFA5cpj8CbzW3m6YnNWyahLI3WzP/7mBEqPd2VGrMkwFLq26wbYdCDeHP4mmFAKcSUblZ064My5lHzSmBlAb0XDmsiKJArCxZU//3l3V5NanZ0dpi2xUK3SqD8GRMv0z5QCn+hB3/2H1us//XCWvvvuVxCV0RFJvDJgTTYzGzMh5K2ZVEjClcoAYGReZhWVA1Pjoh6xgOS7QpYRd0VHAkI1Su6Ej9D4D+8igPt3Rtibe52ezAQpV6glWIYdfEKlKpe2I9I1ETq3fqXNHpsw+6Ox2vUIm/OtGuej8s+TKS8/0Fdh2r79Guv1uG+aXRZny6Y+zpCwEdUqRduPuCOA3DvotIWb9Vivl5jy9RjUDWDLT09HzLROCnqNJKfig6DnSf8KDSjWh/JjDD0ZRbH8JZZrydX86GvVvU2ZqZRJGTYfT98dxEfiVlpGuvKFLp85ICB8g+6H7QV0HCiXJDTffLlHRETLp3lslHvgYuB1B6nqbvfvzgAM57Q3FSEQs/k1Qft79dKpsTM6ViJhEKQFDNd2gzaT5orLshnFMibWBXNWpNtqHbj9ju3CGdb7jb6bNCoMfSrV8UGZmpmpwanKDhOkYOCm/6nka8YWQ+MK8HABnKfrSxUo/aGwDwLj7IQqwOxqispYhDxMOY760Cajv4apCmppYA2CN2ufNwg+PPvep/ILGl63bdkYKBnrlsdsAnpL9+LRrtyGo0k9nTOPtEZoPcxY1O/rbgoPKpEObeBmMEksE/n49O0tS3LZvWpNJqQo5fNLBrqeSRlfithZOF6/OkCuvuk66dk2SZ5+8X2Iw2UxHUJI4cx0AU7lDj+AoXcL5f/2D6bIMaSQRca01r9B2mais1u3BBk7ZGzpGFedX5l2aAgkMMslDoBbz36gNU6ChrzoH1WWS2sTIaSccgZJgPQV1HNRU6rNy4FruD67NP6f+JUuWLpMDDhgu+w7sXeUd123NlHkLUChi3iJJTUmTpI5tZfj++8iwYfuhYWtVfynf889ZS+XpZ56XyMhImXTP7dKpLcyx6nVwIoWdQgI7REjvol1OgQABOb+RkH5jYguNFv/7YgEqmGyU6Pg26ntjkq6pjejY1BXm/HU06tLkLHUdTDNpdNSgyKgcMCF4UTJUcxu0NgaTUHsjg+Z9TRkp8nBTWYMbkpoLfUllKB8Uh7jpngiSGEqtZGBP6dalpVjerQE0vJ8P0UygjIkC9dPArakGAsjZJ9Mitjg2YXLefO9L+XPGPBAkUiLZI4yFq9m2QR0exlzLLt80VTJBuxIaG9KsETQSK/0B+gP6dpO+vbqiWG+UMi/ew0bQbg+uLLM1GlTNMTksaJOeXoQcqxx0iyiAeRnPoPOH5reIzmPvwKioSPiOYqUVojNtu5Sd2X0/Tl0skyY9rN3jaabs1AaJ8iCYavnOC+16GN6ZN6r52ikrcuT9b6ZKSYsY+GVhjrAmf9Vqqyxuo7tZZDNyj88Ppq1xsEZSU9O0oSm962zTGAqrSV5WupQWZsroAwbJSUePkYFdUCbFWR+++Xf8eRQwNm1Nld9+/1MOGzdO2rbiarIWHr/Rmn9DtT5ZgGLts2bNkiVLlqpmltS5i3TsmKTF0rMQzbli+TJZv34thK8Bcvlll0iH1ogixrU6d/r8ToBU45PWG7GJKBAAIGcNYUYX0sWIr2+nbED7ljkSEd9OqyKoX1kByZxjGK/5ow8eGqjJqbfAyZXjhuPIZdTEoG0UAtzoR2NrjzL4jNhmRbsGcHNpQjKSkVEPs7S4QKvPd2iXKPsM6qtaSbdObQTCn08Ds72m+MQqhfoe2L67X4/zA5zVMgNDk1MmQzCmpI2f0yFST/5jkfw+7S+EimegJBqr9vu1OGVaEBjCUHS6JTrQdklqK/17dYNWCz9b+2iJcwRokx7ukpJr0Hn81DEzTnoa3dH8ngfmtXzFWpk3bz4Y1Cb0+stEMBDnzoxskhhMqS8b+s1rw8JQEQWd4Pl8BKeElvF4zk7SpWtX+HHiJS4+GlVSzH1s8W/7LByZSc0LFq+VL778Wn76+WfVDG6beIN0bOXUtMQ59AnZedcf9tCD743gZnn7q0Xy17LNEGwSzX7lnnT+c4uc5q3dM2cWvk3E5qfJ0OByNIoyVDtwoEGT5KYnS0SLUjnz5CPk6MOGSDQGstHVVmO2u8b6stetQyk/PEOPrp0NR9Db+u/N5+Nv7iDl1RvTZOGSlbJ4yXJJz0BACz7nek1CvuWwfQfDPGoiKX0A51tviubb+vf30HndGx474ECOm2PWmhJ555MfpbAyHP03UaLLmkRcBkVjaSTguBZzNZCzkrMPU5wZNdKgyZ3T3Dr8gUESeVqZBNF9KFWlre4ZQOIUA6YEVwqNjT4DVtgIhZ+gdasI6dm9oxx4wH7wIyUJLCs+c6RukOp7fJsVtS3I+aHRRu4FDsiZlAwSj2ZIw0ZSIZGs25iqXRty8lCWCwnepGkraGyJCa2kbds2+N4S1d+DtO8awcm+tdFsre/RmqFqMFm65o0/8t40W61GL6Wffv4NkvlsjeBMbBkHqbwDzFFJkpTUUeLjWhrhBKHo9KsyqIC5i6xCw7JhZLKp6PadDp9NJhgd/Tf5aPOuXQXQtSIqOgrgh2dviS8EL0RFQapHukgBhKCU5DREECbL1i1bpDVyGk49+Xg56cSxEonHZ+sYY6Y1ATvN5ViJmpOvf/QLGsSiiz0inE15LLOX3LaVmt+XApKhifrgMtCXEYWWTSdvLANEHBdnp0jvTq3l7JOPlJEoosyjFPcIcdCpJlKaQKcy1dC1ybE9yUV493Vm7/uPIkhM+fmlWl2IY7SM3tZ8aTiNe2c2lxndO94jAECOK8iE+lOryoJU/saHM2TJ2jSJTWwnqL5l8mlUbDebSaP4zE+OScRMlg2194GbDwDt9Wa5miRsdgY2DI8lpVjdXov5ggky2ovBI+qTY+IptLVKVFeg9hYPR3SXju3Q1bi/DIEDO6FVsMQ7IqY1R2rOlxb6dWuc7gVVNQm2usTrhrVAq3Ju24zQzuqWjKld8ct2hXZHRNo31xQmRyU3kXfGVFyVMv7f3D4ctyS+BnUPP/r0M5kxYyYApo2MGD5c9ttnsHRom6ipBw2t+o+G7ph/poMUS1ZuATpRpMmWrSmyafMWaIXoIs/KLEgTMcn9MHlC84iEqS4JgLr/PkNk2H6DpC177uDgWMEOM28OAOf2O05bmS3vfTMNtWbQ0BRVS0wF/5o1uW3ZJxwOkByZZpCWmqol3EKh5bdAYUuW4ypH7tu+yCC/9NxTNO+NRxnHV7+us7/rwZN1fXG710J8I2Ax9cWYTpnOUv3g/vWn7TiRoPqe9X+Oejyqd8ouokBAgJyWa8Lqo1Q3BwWA3/joZ2mBSMogRG5RknP7qJQuCnLGWFVdk/MtcIIjK+c7zNQGQ5iGimh8CUlec7fobwPz0ihJOr4ZGYnfSwF6+EGj/6LhtOma1AbmyD4yuF9v6dUF0VuuRc+Nw+ARv1Rb0+z59clt3qeaWcfN9wMN5Phmbh8i30U14loWrDIV22XVmTUFf0c03t776TkERnypVRnHx1/9Iu9//KkkJibIWWecCoAZKJG13NxSvJpCXW9mRaFF2wvhn1I01rUlzKgVhgLTCKbuuXL4a7PS3jSC1JERf12UIp9PnouKN3HQdFFGz+CJ7gSzG3V1uP71gwJ9k0wbSUWprixocKxBGQVzcXF+BnJG8+T4Iw6WM44fIWhrbK6vpnI1lkLs34X2UZ0FZiUuPcE5ywFK935trOeoZbt4f24CCgQEyNn3ognq2+kb5dvfF0lobGs1U1Y3+fm2ja42LlAXVZyF6pO4sDtNYrbJuWHVeQJbPqIfaXpkcAQ3n7bBAfCVoYo5/tEyUqEtKqRtQiyCIxB2PKCXRv9ZPxvHt89VWzESGxVY+5z59M06pzVwgc7/6LaaS20v49fKzIT5BW2HDtXn0WF0CnCYowJMzRv/+a/Mnj1Hjj7mKDn2mMOqaGyWN/m1Z4dZboe6Rihp/kdtIG/fvArjr0YO0h8NPfT4Y0mafDZ5nhSURyLJO8rnW7ZAZ3Qk/2HmzlhE2A8wPS0FpdygwUGYpA+uKDtVklpHynGHHySHHzzQ6aLu+Kxdy2LXz9G2i3F7NGr+K2jPfsOAAjk6tj/5aZn8OW+9BEcn+LpvV1nk1Veb26aFE03bGlMGiEH+7EPFMlusTELTZDFMj+wmHawVzPllwK0YlUhC8HsrmCP79ewiAxn9h7y2zu0jtdSW+qB8kmvdlbbqBrn6L5xABDkVMRzaW6F7+1pZVVa7bWK+Qw9nslWDwBetSfnQpB597DlJQ7mn6665Unp0Mf3ZmLdrCl/7V0ht2ltN1N4bQK46PdzvXB38VPioAeSoyVGrXYKiDP/7epqkZldIJLoNqD/VqnnbXGeSrClAFiHCNSM9w0RRct/Bo1qA9ICu7WPlwrOOl/37dzC+WoLirke0+m9E78w9kgIBBXKsh/e/rxfIjMWbVZOrpI2KEX0udc70mGKxVpObZspDGYOJ1chYJLkMwSOl8LGUInycvhRWKWH8Ck1N9JlUIA8nPzcDn+dK28Q4RNW1Q+RfL4T+90YH8ViJ1R5Xxs/EdAFtNo3/qBnW19fSmEBnV1egAt5Or36X8MKZpfmaIeX8+fHnXkMdyM1y8/XXIaTbhIizpJivD5+LMXKYmpi3B3KGAj77gRpBKLWZaNn6HOzd+ObXK2Thsk0SHR2ngR66K7RyjX9w9XUxoAR/Zv5bOnxw3I90BeTnIT2gIENG7NNHzj31KOnbMVpNwjR9UpCs796qz/N653gU0DWPBVlfntDkFGPzxY9/hiY3f52ExbZBUrjZkupbc7anARn83cmTIXAxB4rmRuarFeQh9J/VSJikpKK+qbrBYJIyLRKMyveIjmQbkC4dE1GFhOZIhP137oCO3IYJcNP5wpCJbs7+NcEkgRPt2OQTsitv4AI57TGGiSDzfev9z2Xa9Gly3z13QsuuWpappsdr6GJu7oqDNSAaulR9W+vK5ApPRksZFkamQEl/WXh4uEaUhqGnXhEAajPaeX8zeQY6wq+QDl36oqwb3AloFMdkcLVw2Ix3jGWikiskKyMVgiRKf+HnMgiZedlpiLJtgQLOB8nx44ZLAvagiqqOhcTxNuzKVefday+gQECBHDfin8uz5Pn/fC7RiR0lHD3LF40asAAAIABJREFUKN8FB5vINd2iOIk5bQQ+ghsDR0qQcMzkbWptqt1pIIRJD2BbDlZPYKJ2EFp5dGybgHqCSbIfgkj6oGI6Gyvag1obIy6JoSZ/zs8UrN/BaI17hy9nd61/ghwtkPPRDPeF51+Q666+Qvp061hDWSWX+lDtYesDds0d4Mx2YQsbf6aZFdL47jQDfz95pvw0+TfZtGkz/NSIIOa+oSCJr1BE1wQ5qRdZ2Shlh+ayJ51ypuw7YrRMRsWb9KwidAKJlVAAIvNXy9iZHRHK3JOZmemo/JOrvrdyuAjYrXvogO5ywtGHyIi+7X3tpOy+1iAWb2Ptri3XrO8bICDnZ1ZbkXf14LPvycJVWySxfRe06EAUl0qLal/RyEjTSBNAx3JYNCXSpEnfjNZJhCmTIAiwArJhg+WjKHIL6deri4wYNkT6o7xWWyTrRtvy5ZheG/auTIGNG3Xn2aKy1Bqrhg97JpWm2xN2JRTih2eef0Pat2ktF5xxnN7QzDNLh7la+zTdozSDkY3x1vb9ozeMPi+KdfOXb5LHnnxOlq1cIwMGDZZ99tlH2rdrp8IdBUhaQ1gBhKb/sLBgzEOiDO7fVwb0aKN0mbuxTP6YsUhWrNoghcUQJHGrEgAca5fmI7iE0ckYCcFBFbCStJW/HbgvOm4g1QKlJ7UAACuH4LtJJHEFm3ibqxmsu8B6hYABOYbpcvFTf/prbZ488uybsjWzCIWAUfHEp1UZMCPQMddNTZdaZIMAyAroZSj6C1MlzJGRYZXSsxOL/vZCTtsAVNmIUj+bPXT7OwKuE6tSZWZq0gT2Bsl/Vy3PqlZyh9G5CPzH7GXy2WefyS03XCetYkKduTIJxYYPWqDbVU+8p97H2TMmt0b310/Tl8hdd98HX3SCjL/ychkxYuD2G89We3UriDCndeGSZJn51zxZv3ELImBL1IcdGRUhcWjR3hnVQwahAlBfFCRv7dRVhmPBVA2ilYXfHbuIpgJ59so9dZEF9HMHCMgZvzVdaNa0Px018l59+yNZvRk5NZFxWrWCZhRqcDTB0G9AzseoSFb8Z7Qk827aJbZCq5bOcuCwQdK7a4Kwu4YtisyZoFRrWaSdGU943PVr1Fd42ZqEXQCXWVABLeNpGXPwaBl38DDzcE6mvRYBdibM847WY95U/mNUh6HW1EUb5KrrbkCAVX90Lb8N7Wf8kl/txl+3aGgmSjHJmTPWhCxEikdhMUrgwYoSGRWu5dDYmYp5bzxNhUqf2dT/3L5qKQp8PNkTJesxq94pDaBAwIDctttIZFV6pXz63e+yYNlqlFxibJdxaGtQAv1u2LgxkBrbJMSh0G8bBJH0wFc3dJJGoi7OtqWnTPkha3PcdhM124jFBiyE3Xkq54elmZhOn5WTL59//Q3a+ETK2WecqOkbpjGreUJlxB4jrP90GSOHWjw2ZZTJNTfeKiEQBp9+BJocCkMai4Yxa3JfMbiqsQ5rDbH9Fv3juu0kLr+3N6+NRfrdNk6dXUN2w5MFHMj5OZlhaMydQ6cMWb9hI0oB5Wm+G9MAIuDs5ldSh3ZoaQNTJNQ1m8/mBkwnTHK7pPWY5m5Yea5bMoBoM0pobUYprQ0IgIiJjZXDDhsjYeB/5UgV8aUKONd489WA+XKpZ8/8+xN578NP5LFHJsnIAZ2rtHuqopo1YPjtnUq3QkPmqiHnNtIjesPsBAVsLdgwWNns3HkgVx+CGrsG5XVfFw972fYMGZ4PrT7EDdxz0tA0MyU1XVq3RgcHNJjloXNaQ4aLxwzrP48W49IgLV5+1fXSu1d3uWPieDUj1qxP1X/sus60AWF0M3jHnkiBmg3YalmBFW3d2nVarLxPnz4aI+H2swfSHg04TU7JugO7z92Pzb2cPAt/4G8u3Ryu/EMj52xb4dMn7HhmrQZP6o/Tl8kDDz8qN153hRw5et8qipvdbo29VwJRqm8w4fbaC3zGZlU4qidNFReVyNdffSWDBw+SXn16VwE4kswDuSZZOGZSLGtUZ7eTWmCaqTb2Fm6Sl9jrB6V5UnMRtzNfTTGXts+cnQBramuKe+2OSX79o8ny2RdfyEP3TJR+Xdpo8QRN4HaOuoNOdsdTe/fcFRSoXeO2+ZVVQa4Y/Yk++uhDaYc2WocdPlYfkQGBbo09kPZNwGlyjT2p1ZmXe3xP0mxsau/8ePUpwNMUG8i2ELIbtbmtjSde/1RmzZ4tD9x1o3RBaTQDcn7m1VTa3M6viMYZoSZTWm1zHKhmt9oEke3xuPpSz/fOjkWltnutWbtFvoSw1LVrJzn+2KNRLMD0B6weFdsUe7S+71L9vGYPctsjjM250wopnt9gR9dQo13n3qzVGZA7iKEpNlBt92uKezUawRow0GOvfiwzZv0lj9w7Ubqguy/p6V/zpp1Vc7d12Dnmd/vuVengpFuArpz3QBJ0jH/aYEluLhoTQ0CJjkYdQhzV36EBy8J3KuuQMkGf5Q/dh7aaQvLjqlXr5Pff/tA2SQcM21/GHjrK3JuWlxqqagfSvtlrQa669LO936tL+bresFFY+Jmbhd2nvaNxKVDTfNg77OgGckvoVsDRBrou0yjnlJ+Fokv0zt6vcSmyc6M99/Y38uPPP8vj998u3dvHuesp79zAu/jqHQEezinNaazHyYPzrfm2Wkh6273Lv/NzK/za9cEoYPc4lg/YMZuKFE6Ch6ZErVyzQdavXSMHDN9fYmKiGwzEZl/5VvY2j5xdVCH5KKiRjebBmzZtkQ3r1sv6dWtQ+aZQhsL/dvBBo1AasaUDro6nrkoQhRlyR/doU9BwrwU5S8zvvvtOfzzyyCP1ewnq9zEk1n0sWLBAUlFJfexYY3+2x7///W+o7V19f99Rs8GOXtcUC2J3j/nDDz/oBhk3bpw+yq+//qotko466qg6H60mOlqGVZ2ZLVy4UDZu3CiHHHKIREbaVp0CX8NHyNGLkGOPPVbvR6ZGIGzoEWgmrw++m4l+fG/JQ3ffIoN6tdfAE9uOOJAYUk10zsnJ0Xk5/PDDpVOnTg2dCvn2228lKytLzjrrLN+c/v7779K2bVsZMGDANuOlI9J3xowZcsABB6A5b6Lv87/++kumT58uV1xxhe9vO7J3G3KN6chRgY4cLSQ1Kx+mwi/lwBHDpV+fHjsUzWgsIhhUzZIG7XKRyL9x81ZZsWK1LFm2AlHOqSoERUWiak2njjJkYF/p2aOrJLSM0pZIejj2bRsJYf8ciGtprwQ5u8i48A877DBUW4+XnyHlsgr7vffeqwyVTC43N1c3x6JFiyQvL09OO+00/dvSpUulQ4cO8vLLL0tUVJSe26NHD5/5gKDIewwZMkS/c5PyHhyDR0xMjPAcLghuMs9U6uczZ5xxhtJ3zpw5Ci5jxoxR+nB+eJDR0EzTr18/pW1mZqasXbtWOnbsKO3bt9dz1q9frwA2atQo/fzhhx9GFNhgnT9K49moyUiQ42ennHKKmns4LgWWt956C7UX8+Xiiy+Wli1b6hePxYsXqwDEGo88n3MaFxeHGo+o0YjnpJawbNkyvXbffffVuQ2k4JVlm3Ll+hsmypmnHi/nn3qkaSHF8nhaF28bPh9Qf+DcH3/88XLXXXfJDTfcoPOekZGh89yrVy+l+datW3VueHBuuCa4N/n5Sy+9JPPmzdM57d27t+7Fzz//XJKSkmTatGm6DghcscjP5Ljr1q2TJUuWyHHHHacgx7XIz1auXKlg+89//lPBliDJY/PmzXq//fbbTwUkjsfzOf8F6KXHNZScnCyrV6+WQYMG6Wf1PcqpVeIrDHvgnQ8+k2iMf9LxRiDfkcMU7DbFNAqwCKZMmyu//T5F35v06tG9GwCtu/Tp3VNatYwTNKGQcFcGyJ4YoLRXgpxdHFOnTpUPP/xQJ/foo49W08Whhx4ql19+uVxyySXy+OOPKzPt0qWLbgwyzYceekjWrFkjV155pUyZMkVmzZolCQkJuuhvueUW+fLLL+XTTz9VUybHIONlDUZuTt6LC59/e+edd+Tggw8WMvXqmuOOLN7mcg3p9M0338gXcG5zXk488UQFqBdffFE++OAD+fHHHxX0xo8fr6/Mv5PpkYb333+/gtsLL7ygjIaSPwUNMkgKM9dee6385z//Uaaz//77KzCRMXKM5cuXy8knn6wMjkyVoMk5v++++5QR8joCJMdiXhA1zvPOO0/+/PNP/TvXyOuvvy5Dhw6VCy+8UJldY/hKGmteUa5crrnpAbSiypHHH75PEqLRHwDcjkXNA/mgYPH000+rNs89dc8996g2xfmgls29R6Fx/vz5ClTch0888YTObVpamkyYMEH3KwVSzhv3+M0336xCDdfXI488okIs9yzXHYHziCOOUOAkL/jjjz/kf//7n1oWunfvLs8995x07txZC1dTIOZ33o/rjWvqnHPOkddee03OPPNMoUZIHsF1yDEoEHHdcm3V97AdORYuXyvff/u9nHbKidIFNXnpQ6teJKE+Y1qQ2pieIy+8+IqsXrVGRo48UMbAotGvbyeprZnVnhyYtFeD3O23367aFbUzboDrrrtOF+e//vUv3SSU/AhQNJlRiiM4kRlycVOKJ0MmM6PEx01ErYMb8IILLtD19vzzz8uBBx6oTJKmTW5W6wvg4n/11Vd9mkJ9FmhzP4fSJKVumoYJbGRepB3pTo33k08+kYkTJ6pUPnnyZJWKyZgeffRRBTZq07yWjO6kk05SQeT888+XX375Rc3RZIhketTsKH2TuVFSX7Fihdx6663686RJk3zMkfN7+umny1fIB/q///s/1dg4pzRjEQwJmgQ7SunULgnAzz77rDIx68cNhPQVmrwojH/0/VQIbk/JXbdPlMMPGqoVTwI1TdtaW0hbak6jR4+W3377Tedn7ty5KvA89thjuldPOOEEnVvSn1YV7jPuR84N53jgwIEKNtdcc40KNByLwMf1QqGIQEXg47Uc66CDDtL1NHz4cN3P5AMjRozQtcb5pTBFgZXrhZoaBSyuNX6RB9AUyufasGGDrh3ej8DHz60ZvL572c7R+5/9gOLzBXLeWSeqqdDmBTfEPGgBbn1Kjtx93ySJjY6Sa668Qrp3Mp0l3MEt1Z/PA7n6zlgAnUdm+Pe//121MzIsHpTaCXwEO24yam1vvPGGmihmI/yaC5qMlRoaDzJBmigo+ZH5UXJkwAI3IkGSDJYbjBuJm4PjcUPdcccdymhXrVqlG8Zt9w8gEu3yR6HJh0yIUjPBjoIEtSUCHQFm06ZN8tRTT6nZh6BEsKGJ+YEHHlAJm/TkQUGFTInMceTIkTq/BCtK1pSoOQ/UuGkWJbBS+7rooov0Wn5GcxK1At6jVatWyrQo7FAg4pxzvrg++PPHH3+s80vwpXYxc+ZM/XvPnj0N43Aq7u9yYrpuaJvQZqKN1S23T5KcrEx5/ulHJCGKEYQ2eGB3PmHt9ybdCVqnnnqqfP/99ypQtmnTRunM/Upw4txSIHryySfVIkMLDdcEv1O45FxwHrgeKFhSg6NJkxoZ1wa18HPPPVfXwI033qhm6TfffFPPo/bINcGDvj2aObnXqflxfArItDZQiCLf4NoggN59992yZcsWPZcWIZq7uaa5nskvGnLkwWf21jsfaGPnow8f7a81ikHcuY61jwmTp2rtLdT/duMtd0C4jpd7b79efWy+4guuggw1jbUnmir5HnutJkeG9NNPP+liJqMjkzrmmGPUVEUzFRktNwQ/50ahVEaJjGBFBsqFSs2C0iBNYZQqudBpBiHY0SxC6ZIbkGOTkXJj0kTJhc77c9PwHvQbBAIzbMjGa4pz6ScjfWn2pSBAxnX99dcrgNFMSHrRVEmfGueATIjSO6Vu+mtohuTcUeLv37+/ghiZDYGRmhXNRl9//bWey7HIjCh5c+7oR+PnHI9aGTU+Ah01QvpkCJAcg8LLP/7xD7nttttQgqy1avg0edJEyTEp4VPIofAUKCBH5mTbWM1ZniLjr75OjkBt0Dtv+D/zjE6akzKxALJe0upx1VVXybBhw1SboibFQDHuOfrKuUauvvpqNflzrbzyyisq4Nx55526P+kj5Z4kaPFnriWCDi0D3PMEOc4pBR8KmwTTyy67TAVVrjlaZCjg0sxIkCWg0apDywFN0zSh0o9LbY1uDa7fm266SccjePKZuFYJnLQc0DTK4BcrJNd3DyVnFsvb7/xP9kXLsLHsygHAqnTmqV6aHCaWfjhmST3/+vsydfpUeeKxB6V1TLiUwNTOji4BNO31JUu9z9srQY6AQpMHgYhmMR7U1MgkuXAJRmR+ZGwEJzJDbhRqZVzQjLyiRElNg0yPkiVNaByLmtp///tfDTwgmFET4MYg+JHxcsNSY6G5jdGa/N07DAXIuGgOJsOgoEDtjUBC5sF5oNb2/vvvq8OfDIimLM4NtTXSn1GSZIDvvvuuan0EKI7FIB9qgxQwOL99+/bVsci0OGcUdmjOYqQlx+Z9GaBAfxt9elwnFEYo1ZOJMmCBn3GddOvWTUGOPhnOM01cfB53Lb96MaImXAQ2BN2mfr/7xR/yyKOPy9VXXCp/P/MYvTPznTQAKoC4HelNbYlzwL1JSwp9b5wPrgvSnvuWQEMacz1QGKU1gHuL+5LgRI2K64n7lwEl1NQ5Ns2M1j9u9yGBj3SggERLAX107733nt6DrgfOM9eMtRpwfVGbp6ZGLZJ+Od6P67QdmtByXI5H0yl5AYU1dzRvfaZ9a0aR/PvNt2X4vkNk3JgDzCU0WdJK0ACf6prNOXLHPZPk2KPHyVknHi6lnHOE/2sn+ECa+PoQpQHn7JUg1wD61KphuTWvhoaZ81oGK9hcrEAKUGgIbRrz3Lo02e19Tlo2dq5iXc9T07u75zHQ5tSda8Vnf+j5d+WTjz+Uxx68Rw4aNtBfrTlAQK56Plx96UlNj5o8Nfjqa2J7c1rXfLvXWH2fxb1G3KlJdd3LXmd79mXkVcjzL70q+wweIMcdMXqHQe7LX/6S/777gUz811UyuHeStrcKQUcXvxAWIJPfmIwFY3kgR6HI8ZvUlmdlF0Fti9tdt41juEtDuX+vae7qu+Abed73iOG2F4JfHVBsgIf776RtXfSvT5i/e47qc36gEtdttszDL9dOuEsy01Lk5WefkMT42uLqAvVtan4uauc0L1LTs1VLdlSTrs/erH5OY64PbfPHOq749vTL7yJvLVz+7/xTjCJnHGn10uSsL+2V/30rM2fNlrtvuV46tAp3CfB7clhJ3evTAzmHRlZyNAuIVQFql2rcn7mvc5PbjrGjG6zuqWveZ9RE1+rz4v7dLfnXNj81AV51jWF7VK1eWsz9jDvLUHfVbJJxMkcuFMt7yry18H/eIZddfL6cc+rhu+oRmuw+1YUR3mhHclDr2v9N9gLVBq6gkAaIQ3lI+eDLX9Tlcf2146UNBBLOo2l5W//qIo+98r5sRBWTuydeI3FVZBoP5HbVnO7W+9QGVtUfqjpo1XWdB3INn9a6aFrXiNubo9o+q2ueqj9TXefX9Yy763MyR00GhvstD2h3973PS3lxvjz+wA3N2Cuzu6i9c/dVzRtAx8TtpetS5cmnnpWzTj9FxhyI9A8NFtq+MF797vc/+5ZkZedCk7tCIqvI8PUAuT01tJJCADavfcOdmxHvao8CAUyBhmhsAfwaO/1ohnHCWgEmx/DxV9+dLJN/+EaeevRuaZ1gypvtqCZDTsIoThpBbP7druKNjWkm3GkiN9IAOldAs0rWx8XP9z76ilYhGX/pmb6Gwg0Rtu57+k3UpMyVe25B09yGgJyGZgYhaKtccnJzpGV8LALubPKB6pKN9MZNM4wHck1DV29UjwIBSQELcgzKI2t66Nn3ZcmCOfLck5MkOtJAU4NAzkGx7YGZ4z4in2yyozkKMWquVJALlhDQ7tV3vpJNGzfI9VdfJjGYq4YGwEx65j+SmZUt99x6lURVqQKwHU3OFbG0dt1WRDOvltEHjUTQHAeohwbYZDNe/4E9kKs/rbwzPQrs0RSw/IraFuXwxeuy5aqrJ8hxRx4q111xngNwBDl3G56aX1mDehw2x+8hrOyP77/OWCyz4DsqLiqE1hEvBx6wv+w/sJdv7EDKwwv0yTSBU9DmQDSC3OMvviuF+Xno7v5/QoxpqPb6wHNvy1bW5711gsRVqUFfM1hVFxymoc5lQWE+2uwc5AhCloJNKL00wiTtcpCzYbGN8OzeEB4FPArUhwJOWRPUn1dgYk+FjVklct2Em7VI8zOPPyjtEyLMSDRlMtyhDjSypskK8Dc2JUrLr5Cnn31J1m/cIgMG9pf27drKZuSLrVi6WE454Rg5dpwT+l6f5/XOUQqYwBNTTDmzSFDd5Q7520Ej5NzTj92hVkkPASQ3bNgo991+g7R0pts36fpDVbBSjd4J78zMKpBvUDtzMOZ28OC+JrzTd3rNIGcdYe6lpAEzNpF9F83zDoFccQn6KkEcjIpwGi/UYXjnyxYVl6Kidai+oCfN7aLZ9W7jUYCQpVEK9MMFq68stUDk8iuvQ3mvLHnmiYelXzfULtwBy1MZrqGGsS69UG6aeAdasbSSf/7j/2RgzzZ6Hzbc/HXKfPkPqgZdftnFcuD+yMfzjnpRwOc7xdmk8X8/+Uk+/eRjeej+O1Frsq3BmAYqUJOgyaUkp8h9t02Q2Hpocu4Hnb94lfz2629y8d/PRyoD+L59AHdEh+t53ADNcTZuSUcC/UpNg+jTp5fEx8bUiw6NcVKDQa4c6DZ3wSKZPWe+jDhgOHoN9anzOQiIv/4xVfZD6aSWsVVEiDqv9U7wKOBRYGcooM1VHDk9WKAQyMQ7HkOFmAXy9OMPyaCe7fzCfD2YpjtMTbtUA8muvOYWCYUA+9Rjd0uM4+uh6dJ24Xv7o+9kGiqXPPHoXar1KV90mGNDGfXOUGJPutaCHNMHVm7KkwnX3yBHHX6IXHGJ6YnXUFWOAsfdj70mhQX50OSulqpcePsSDlfPJ5/9iApB2fL38071k7G6cuPyz9oyciX44acff5H1qEQzFJVievfqLvFxMUjU5+rYAclqByaxwSBXWlomhdDKVq/bKD+iHNJxRx8l/Xp3c6mv2+4ULvg333ofpXG6yWF/c8rSuB62DkVwB17Lu8SjQBNQYI9dqP4H/37KAlSgf1DuvO0mOWIU+h06DLO+YKNmShb7JffF8dCzb6Jk2lR59aXnJBHte0oq0GSWRi4MSHhlv7qUrGJ5+NEn5LCxh8jRYw80OV6+G9c/z6sJZjRgh7QzloseSRNumCSlJQXy7BOTBOUmnRBWfK+HUGJfsAADTrzrCURGxsjdE0zN0qpoxd+qmSudv6RAU3/pldfl6CPHybB9Yaq0Ry0gZzsnbE7Plffe/a+0TkwAThwNTd+tvRnBy9yzAS+yAzPWYJBzR169/PYHEhkeIeeffrxzaw0grvGh50Ld/fjjz+TYY45GfcHuMF+WqPOyTZt4iXQ1Xibd1OFJs6YSsTlXVduBGfMuaWIK1GJ/ce5aBomtpAR1D0NDII3Wb3M2KFqxCd+Owubzb34mk3/9Xf7z6qOqdZUBcUIQ9uhrDaR1DGs4CG6WLTmRmb/OWCr3oBPA3XfcJKOHDVbArADIteCeJcjRpwSQo3L3/mc/yeIli+XOm6/S8d3anI/XaREGe+/60bYJydXkQ7tXmmX3pIzpFWdU4geffhdNTX+TRx+8SwZA66bl2fmoQc+3Nq1Ibr71Tjl87MFyyZnHbefabbWr6fNWwFT6mdx60wSN6tzeYa2YyRkF8uJLr6B2bC855aRjtfiAHsrTa37zBr1QA07eIZDjI3Ihz1iAl//sC7nsogukW1JrfznzWpD5u5+nye9/TpOQ0DBsGORdAOhiY9AY89gjZGi/rmaTsCS673pMtoJc81/wDZgz79RGogA3pKkh6viWffGCbkZbde2tWb9VfQsjhg/D2q2f6b2hUXCN9HquYYzIzX9/mLJIJj34KCL0rpJjD91Pz2ErnkowVgJMrU1UQSwCIupIARRFlq3LAtO8A9rZaBl/8RmGfzl71wat8HfucwZObEzNk+dfeEnGjf2bjB093OTq2Z1uf2Cx4Cov37z3vQr0Lm7nfnW++Qef/ynPvvCy3Hn7jTJ21MB6WyiNomCUBTufT//7U3RY+Ukeuu826dvVMVHXuNCqglwe7JzPvvCatIqPk39ccPp2l6Z9l7yCCnkOz92pc5Kce8bxDl/XVDuHk28LpI2/5v0jNhjkdDE7X8XAo3snPS6DBvRDWSBTzVz7dnCp0tHtGPAtKPLjTSm5smT5CgkKDlWz559/TJFVK9AG49orZMS+/X0RRSaox8Bb817qTTm93th1UWDDhi1akb579y6OFmH1FV7pX312A/85a6GsXL5Mzj/n1IBtOLrtO/tabAo7hE969HX5+afJGgxy8omHas6UETDdjMiO4rw59nK5ApbIhrRi+ddNt0u7tony6AM3CWMYGGjgs7w4G9akGUBLxOdUer+dPFV+QfeNCdddI21bRW/zmFpyrKzUJXQ0751fE8gxfoFCxOyFG+WaCTfI3y88Ty4591gN9FOQqAdJSG8GBYU557758c/y8qv/ln9eeqGcd8o4h+61wavl8ObilVuyYWp+TK698h8yoEeSYfEOX69SPs/Fp998+xNtLXTDjVdqqgqfxQJcPR6/ri3b4M93COTcZJg2e5k8j9YWN1x/jQzu282EIJMIfCu3l1rt9Ns+HyfknodfkpUrlspjD90r7RJiIDGaPB17+u4gTIMp6V2wR1Jgzdqt8uMP36PB7dno8u4Li3C9S9XV9/6XP0tOZrpcev72pVo3MdIzMpU7JbRquRsENgtw3JpBCswMFnn6+bcREv6t9OvbC0B3rIwaMVxamYIn2z1mLlgnjz75rMQgOu7u226UTq0j0bKFJk9etu0eJwsoxz8twA/IVt97/3P0Wlu2xdagAAAgAElEQVQPDfBQdHBPUp5QWFAoReh6TTjs3KkjWuEQALfHhOt6yj3j85pAjqstB9FBV46/CQEa0fLk43coUKiZsh4Sv5tqaWiS+9yL/5ZPP/9SzjnzNLn28rNN4A8V8noy1Vfe/RI9E5djridIhBVeTOHMKmkmxsQaJAuXrpM333gL4HyuDOzfHbzclJBzP1c9b91ok7jTIMcneeqld7Sf0v333SmJiE21pghreqhigiX2OUuY3ykZpqAk+pVXXSsjkTh6/T8v0Jcj+Fms3NVEaTTqegMFHAXUjIOnstU3Pv3qF1mxfKlce9XlaB7pj/eyfmGKWnYDJ+eUyAsvvyaDB/SVU48ZW+93W7pilaxAc9UjjzhSwuB/rg/7bvwKHkar0nfHF/1zf8xcJh+iF9oi7N2kjkmIlh6Bnmv9pVu3bujfFoHgEpyHjZiNwJGVK1aih94UmT5jJvrnDZFrQK92cSFq6vSboWomid3vvG8RAHbKnzNQOWMtSkOFQrCIQJPaKGnbOhGdAxKkQ/u26PNmzcf1JvEeeaKlixEP/Barf7/ztTZefe6ZR6Vn1zamVJoqD7X74zhPHI/CBs//7PsZ8tbb/5XsnGy55OIL5LQTDlWNWzXCmtoG2kXp7A+C4EYEnNx6+91y3rlnyuEH7euj8fbW5kuvvSdF6Pt3zVUX+3i4G1C3x8ubis/vIMgZili6FOOHe+9/Bo0qN8hN/7pW+vXoqATh53zT6g9vu9rq5/iQi//rX+fIY08+JXfccoMcMnygEsiaT7ZxdeqFrlWxRy5x76EbSoHGYPw2GZVrcub81fL6v9+A2e4iGQqp0y4rZT6OFYI+YbvUvvtjtnwGqfi2if+Sjq2i6gVWvDYzpwDg+KqccsrJ2BudG/rajXq+W3vgmxXhD7PnLEO36NmycPFyycnP14avUQCeEKB+SWkJqpcUg8kGSacO7dBR/BB0px5qtAt8bT8Mwf/obqDjXzOyC7QpMUPJY2OitToKJX496iMFNCpVds9gNYHc+uRiuebafyEa8TC55IKT9MEoSBgQ9CfpG5+bo5E5DJbf5i5PVkFs3rz5cughCDK56DzplRSv49QeFujQ3JKfWhp+fvntT2XhgoVy7923SjzUONs3s+o+NJYCOpZWwCryKqIwLzjvbNXijLJjdlVdxQWa0mq3AyBnWYE+um895paIPPL4czIHnXqZEHr0YSOrgpvL1WHBzSI8pUp+fMeDL8jsv2Yhf+dh6ds50QAd9PTg2iK+ds/a9O66myjQEDNLbY9o+WdOsciNE+9Et+cRcuHpx/h8Uv7rDAvi5iXQMZR74u33aSLr1Rc7uUoNoMO7H3+tFUCuufISBYhymuSdKMSahilFBCeDsNh5vikOK0S6A0Q3pBbK5q1b8ZUsGTCx8hmZ/5aIjtZdYFrs0bWjr0WL8RHVXRnFPrtbgKjN6tYY89sUtGqqMd0gZ/H9Px/9gq7i/5MXnn5IOreLU3OfFtCoBnJcsDRhqpKAixkf8dFnU+TFV15GqlYHgNsFcvAB/TVX0QeSzjjbvI+LpescYLxNmcVy88Rb5czTTpbjxh0kZRiEQoiNmvUDl18i+RCm/AUA17tuvVaf1yaE1wfkDJo0TfyFH+TqLT1tu1ytREew+vDzX1Dh4D/Sp3cvOeecM2XIoJ4SXoO4Z7U0jqatP/CGmTBlXDPhDtmIxMH77rpVRg01Ne+sul5fO3JTLUpv3N1LAW7qjZs2Sbv27SU8NHj7kmkNj+o2ALwC5/jsOXPk/nvvklaIvCAzsSZM/543bU54vPzO5/ITotMee/Be6dQmrt6EsHtjA6ILH3zwYbkQvr8D9ulf5/UrV62R1WvWybjDxjRZYWMyIWUuytjqZyxSxopjR8LY3eIxBYgKICXJa8Ll63f/Ogm3B51QVV0wD37LAy9JVla6PHLfLRINB5oFKB8IuMhEQYPAQ777yJNvyceffAGee7pcevHpEkPnG45yDEBf2XZ5p+X9GK8C43E2HoELasPadXLfnRMlDloc14q1amiQEWdMBzUXp0LLefixp2WfQQPk3NNMEGLggRyfSlVgKphWQquNONtqc9Z/xmEWLd8sb//3fVm2YrV07tpNDhp1gOwzpK+0a9NK4lkSptrBfaONHPG1JU/krnsekLmz58ilF52P/knHVylBY2NZSN964/IetPC9R90+Bb785kdtPXLckWN1o7mBq6YrqzJWw0o3ZZbLTTffIqefcpyceOTBJv8LJ24Lcub83/5aJnfcea/cOGG8HDN2ZIOmiEyKAhwrjTz//Fv4uUKu/ueFdbL0eYtXwIQ4U0496QRp02rXlEAyZqia97xvrzXqpquJzTeIvHv0yegvoCZHK0jxZf554wOo+5kot15/mWr81ofsLFGfVsffLd69/v738uLzL2J9Xg3f2xilic4lwcgCkX6vJkhUm0urePwxd6U8+AjTTK6Rvw1DxLvrym1EEWeM+Ss2yBPPPCf/uvYqGYgoTLunfPuzHjJMk2ly6dmFlaEhoRIdZera2YPqKZG7IRKbO1GRL/cXwmA/++JrWbRkCVC9FCHHbWRAv37Ss0dP6dy5MxLBW0vrVsHqEHUf+bj45Zffl48++li6dUmSc84+Qw4ePUJiHcuNEo7SZz0It0fvAu/hDQXYboQbDYtx7aYUefPtdyUhoZWccdop0q4OAOB1blbKNf7pT7Pl/f+9j+aRE6R3t+3XAdyQXizj4SMZOWxfmXjNxQ2eEZXEsU4pxL302vuSmrxZ7rzlWt1r28OL+cvXybc/TJaTjztKendt37D2Nw1+Su+C3UEBC3Js7keNbCMSti+78hqYCE+CCf1ou/R1/bjXsQau41OuoaX/z951AEZRbe0DSUgC6QVCEkgIvTepIoKAYu+99wKCSJOOgKCAIIINO4oVFakKIiC9E3pNQknvhfTA/51z5+5ONpvGj4i+jG/fkt3ZmTv3nnv6+c6ZDHpp0FDq16sH6PNx+Y1VIVHZKGrv2IgQM/FBGHI9I5+SAjf+gEEjqGnjBjRx2ItqDPx7S+TN/kz9sGwNrUfR+oxpr0tJCluZetz8i4rw6r9NyH2z6DdRJ5wcHZEWXIv8/H0hiJpQTVvJUw4VmAOhuvOwnqAY+Pq37NyJLK5jFHU6hlJT0yWI6evjS2ENgqlJoxAKgTALrV+PAo3GjfzbXQfPIDFgAR0+eoxCG4RRv37XUY9uV1E9pC3rxZQJ/CcotOqel28GEJtSZSkMGIVs3PQcoCl8IvGjVwcPoCaIFZV22BNycz77hY4cPoq+WkPJ38vw65RygcmzF9D+A/vpo7kz4NZUcRCJkVSQ6LQll3SOaOy4iUjVb0+P3X97uXO3+1AE/YQkl4fvuwv1ScGV7h1W7g2qTvhHZ6CY0DJGMmnmfFjv2+i9OTMpLNBb0ZrB4PT51vic+tEXi/6k73/8md5/501qUNcNaDwa3MCs2ilNyy6oBr6S7GG4G/gXk+d8QUePHkH94wSq6+kqAAC6oLw0ks9GvHrmu+8jU7YGjRjwjIxLu1nLs+TMPbtVlm4FN1YlVq/atp0HL2RlnYPgSUOvIQScU1OphnMNat6sOXXrchVcJdjZONiy4wnmB9a9pGwzZnTgmOvBS2ME6ZiQs9HpdAwF4ZFRkXQGTQBjY6MpFxlcbu4e1LhxY+p0VUcgSrQhXwNQYt3OE/QzkFWOHDtB7sj6uun6vpJ9VMdTuT61ma2f2zKxlZiIqlOv4BlgISemu4rd6G0w6+Ov6RAE0NSJY1Fc7G73AcxbXf9u6tyvKTkpBRBTg8ijjNqwyJgsGjR8LD344D300C2VbxVjpsv5X/8KxIm1NHvGFKrr61aCZs20y+PcvPcI/bR4Kb307BPUMAhp5Ebt6BW8SlVDK2cGNC1qmDdNj5kw8z/44Ev6GZ6rYUNfoXtu6a28D4aQEwHH1pthfUkcE5/l4PvJiOExcPI7b46wAGKrkI6Z8nnb2IgPtvC0O9MYyGeLVtPCb7+lNyePp04tQkXAiTevNLljjCc6+RxNnT6DburfDyg6V8ssyJhNQ9BKoc2oLFnM/Ju/TcjhQYvd93RMMm3etpP27jtAWVmZSEPtAZdJX5nUfDy0kxZyPEGmrEfLAhpPKKanSGZ18Pe6psbsFkVSJvE9T0Scpn0Hj9OBg8cgBGPgjvKknj270y039acwXycxmbcfiaEVK1fTX+s2AGbGnR6+/y664+ZrVDoz80A7PsxLrxdU7eXLOwNW8lThbkVHnBWYhkSl19Di5aq2reiZRxS0VEWEwbT3vqGY6Fg0jxxKXiWBNyyP9/tfe+m9T7+iKZPGUpsQpVlX1H0v6B14cXPLJauBwD9nLg1Hec1NvTpbGIBK+LA/m4tXbaS/Nm6Skhovl8p3gb68a1R1t7JmQMfVtLDSWQnxqMr/Y+16WrJsBSXDwHjuqcfpvtv6KX6prTgT/9TWnPTww+ts6gUaPHgoXdP9KhR6P1TmIhTHT2UJZxgHhgRbvHoHvTPvfRr44jN0T/+rxd3Ih6Wsw97VDSG3/WAEzZk7lyaPHwMLFPCOpRx6/OavL4slB6ag5Bz+J1lOhlRIzCigP6B5Ll+5gnx9fempp56gto0uTY2PSl9WM8RBebMgSkCvq30HjtPqNX/S1m3bkcJcA51or0Vc7h4K9XIUBrHtcAx9/+0PtGHDBmDh9ULAdQD51AIjUOQh19XXrBJy/3YGpLaGEnXKa2/sP5XM8dECSktKoDfGDJMzdOF2GXuS3v54Ee3ft5/een00EHZKT9FftTGc3przIb09/Q1q18BHNr6A75uJSstg02fmVPhfwTzemjGDnnziEXr2odusIMd6xzP9828taroa+VvzPoV3I5cmDBughGKVJfevJWReWqZZo3EDnYg7R0tX/Ebr/9qAWsFE6tiuNVrYPEDtGDFKaNhO/aFBdxoii3Wjr3/dRPM//ACuxfHI2C2/5ZmeQFuS/e7X9TTvw4/BY++llx67XbkaWchKyYDBUm1n36B3vtZnPyynnTu30/QpE5EkWDrHLWYIGde7bEJOsnCMnWtBRTA0zMjYVPoClfPh+/dDY+hOD9xzNwX5lVR/ObDOReFRZ5IQezsMF2QCJSWnUCFa87jA/RnWIISuvaY74mmG+xPnV+fJtJkT/Sdf72hkMq1cvZ5WrFotGvQDsNzuv7sfca4ZE83ytbuQBTSbggMDEPCcQPX93QUnja9RHgrDv3bH/A8OnIF+dcmprC67UDAPyAmhN6ZNpxCs/+DnHpOZKavWSqdBL1i8jhYvXkLTIeQahZSueSZmXqAXh4yi4KBAmvH6IMn+LQGvZMMxDOVWxrJy7R6aNHU63Y0szmEvPiyfCZMy1lBoXX6vdp38FoR+IjqJxk2cRPfceRuQVfpK0sqlTrK/Ujoj/C+Rcxq0sk8XLKJVf6wV9+PV3TrRDegK0KF1QwvOpChpNnEpIRGtDBkTtutYIjq7j6Brr+5Ek0e9VKFpVCg+VgMA24fmvr8QyYHL0Qz1MXri/v5y5xIeC03jtnfByedAnKNfn04NQ+uhfvTBcsdheymzkBM5XtFgd7l3sp5QshhcGXVy6Ptxw701G3ehSPFnSk8/R23atKXmzdHiHvVKedA24+Lj6Ez0WTpxMgKCLVkWxMPTC9hrXgBbdcJv0ikWgJ184Rv796VHH7yTvI1423nO4tQqDk8wv3CeuUj1YFQqffblQvpz3Trq1Kk9DRrwHLUC3A0fG8MjaQTawnMzvlkzJkkcT/DSLERhO61Vtl0l6OOKOLU0IbfnZBxNmjSFhgA8tmfn1jJWs5DTjFy/ayG3cd8pmjptBg0f9AL17tbK7jNqYbVq82EaCbT9Z556hAY8qhJGyhKk+nebdh2nYSPG0E1oLTVq6JMKqNaIcZhvqBR03nSsvqueU59+v4x++30lzX/vHeBJOlUIOst8TTPFKyNRpZJzcfc5QC7VBJSWIxLNqo7LNwMxALUeP+lNNJw+QA8+cC/devMN1DAYKC/GEFi4WQ8jlxGLZxsPY/64ZjMgFNFJwh8waHNnT0Nugi3mqvq9PuxxvP0wIGbNeY8iT56k4UMG0s3XdZLTS3XJl8JGD0bG0Xj0JxyGBLBubRqXmTFsb7aLRcts44aXaHnKRTwxP3Q8skY2bt5BG9DlOzExybJ5OAGV8edCQkKodetW1LhJQ5QkuACtwUUBs2JlkpFRuXz5KgRXfxGBNAHgrg0NuBnNGMQtIxxEBy2VO5MPdk2thmY8B35j7lk1Cr2N+nVVDGrtrkgaOXos3XzjdTT6laeVxs0as2V1y1vySzSbVZf5W2bAKuSUpsd2HG/2+d+tpL/Wr6N3p08mP8ZMNeIY7GaR5ChLnZD6nRSn4j0JLvHBQ8ZQp3atgJVavvb59qeL6cdFiyB03qY2YejphevowljzA/OY2OI6fDoZ0EzDqRFKZaZPGyOFuRbByPJMCN6w3IyNze5ItuLOJufSi4OHUJ9e19ArzzwkVpz2kFZUPSuheGMDVsOkHEKyF0Npde7YgZwRBqg6Ls8MMHTaqHGzae/evTT1jdepW9tQuTFb9aLMC01wjkPJFeachXx8D7Q1OnjwMC1Zspw2btpEV3VsT6PBA+vXVklMCvKLr2oVcLZXYx7KSX8/IYlvybLfKCQ0lF4Z+AJ1bhEs4ykz5lycSVuY6wcAVdgATNN3355GfjUZy9QKoHB5Zrf8u5Qr5CRAqebO4mbJQoZkViaQw2HF8VHT1ZVcXF2gIWLRyrln+IkEGjthCuUAdXz61AnUoVk9FXPg/yw5MGyGqciamM84QQu708n5NHPWPAjbLfQSWoU886CqJ/n057XohvABKvTH0I1XtxXmYOrFWv5MVJ1xBc+AAihQPgZ25lQjrqUcO2kuudVyocnDjE7HeiMaT1LMFWIIuSK8sxL0+qwv6MjBgzRv1lTyZU242G8VLQpqP85PAJr7U88Po/atm9Dk4c+VmCedWMA8Kh4De2HAK+QMpNwP584iL1fORja55fXJuK4Vw1W5qHgIr01+lw6juej899+hAIAkV7ZNid5LapCKzWn36PwF31AzIBH17Nb5Cl7r/97Q1mw5Qq9PflPaid1+vUo8KhLLjZUlrLxid3Iknyuk1MxsSknLgncsjiLQsSESyDdnTp+mzLRUCqzjR7fddD3ddXtfcXGqXoCAPjQyRMyCje+QmnWeEpJTaf/hY7QN4AIHDx0EALYTGpnehmtcT+5g2HwNZvKSklGaJmUScvJPnAdcfXpx4Ci4Xa+iFx65W8Zvm+l+Jaxm+ULOGKWxJioYWc7IdQxdbzOelEK0VK4OMFYWPPHQSl5GrCMxMZ7enzOdmtf3A/YaY/kZmrqhioqQM6ulxr1Zu5kxZyF98+139NKAZ+FGuo1wSXpu0OuUfS6L3pv9JgV6KBFnrJ9lxOUJPhs+eSWsUdUYLM4XJXj4P6aBcVPno2/VWfpy3iRVXC0aMe9AK+yQraDTys/SP3fTnDnz0ERyAnVsHVJijs2NTvleMz/8mfbs2ELvz5yEshpdd6CoRSe7sDL4+uzPaNXvq2j+vLepdaMgJTsNouIGrdXhkmTBaVHs8L1GvHj/66X01YIF9AayOa/r2tZCu7zfSknCLDFuoXcR0OpwNLjWTyvXojbwIBocP47xu1cVl1+GXaV5ybwvlwISbh3NRnfv0LruqGUrQhjHQZQcva5nErNpyfKVtHX7Tgi4dMoDdmm1ag7kWhO1y+jQENYglLoiVNO5Q3PyMEo7mSeLFYeLaL7GtBqNxBbOVj+A7hIHUWITn5Ag54WE1KeePbpR755XSwcJPgQbE9+VKeBs5kp7LBb/uROgHfNpzvQp1Lh+7UrXkF6GJZBblCrkzLKlTKFWCanAbssLWBBe2NgMaMcvDCI3N1cBI/WDFZgvbiDVfLG6Dr+aBiL6PCShJox3P/8VWUEf0QDEZAYjK2j13rM0evR4emXwy9T/+vZ06nQ2ZWRkSRyCcfJqID7oCOJyhibDFoCbqzPVRFIMWmORu0n68SLybW0ZS9nC3TxjMrWXaw2vyPtc2tlQIoEPQ3zJ7G7ej64XI8di03ZH6vNTVFtiE4T+ZtyP0NCSTevAzF+l9aNTNaC9nn9xMN0IgIGBT9+l5pCFpO1sGlr2D6v20uefzKcZk0dRq6Y6y1gRv94CyzfsR3x4DI17bSg9cOu16pKmpC7JKGYBZwhj8DBhTtzI9KOvltDnX3xJA59/mp68T2H/6bEoSjL9ZfzTts5Jn6VdnJqkF/76B635Y7W4pto0BTo8OJ6qY/3fptG/c+OYkzzefP872o9Y3MwpY1Aj6QpepASTnv4Nu0/StBlvo94tAzXCHQQUg/vqBQcFUWDdAPLzQejHNFhe/iJcBFRONQwXZ2R8JrBY96OYfCcdPRFBuWhI7efrTQ0b1KPm6BnYoW1ragR0HzP0QSVYt2V/iIAD2aRAmj4/cBiu24pGDXhCfW/w9yuNqsoVcoVgGBe4Pg7CwYqFZtpzdphCqcSjmYjBOMIjUullZAhd1bENvTHuZeJcFF46i5Az/NVyvVJmbtaXy+nTz7+kcePG0N192tLw6d9DUyJq0qwFtPxYQQAQogDCCsc8uLWHaD5YqVoQcu61nFFz50Z1gfTi7+0BxHVoTt74zmSxmpmN/WHoM8o/8+/cWFfSta1iyRpTurjxFZ9bdV1lzfFaLF8XTnMRp+Wcjbvuug0FqX0p0NPZwM5j74BVVeHEC1aUHHEyJ1MNmzCPUlF+MG/m6+QOt6IE/03Bb7kXbsLCYun6I/TBe3PpjfFDqX2rMONRtGXJPRGJXnh5OHmClj55Z4L8RluRQjPiLlWuIWYU3PeLzzkSnUEfzv+c1q9fTwNfeoaeNgRcyVIIE0sqpvipvWFLl/x8B07E0C/IIj1x/Di9CNd+j44tlQXJ8T9+ziohd3EkWYFfibvbyAKeiZKVXTt303QoSPVqA7SAacCw4v7cdpjGIHzTrFkjuDMHUqtQlVBn75C1k0xjNr8chX4AJkU//Pgr/bZyJeqazyEfogm1bdeWWrVqCeHWkGqrZHbLoctvbBV4s3JXmpCSmLfBF6e99yVt2ryZ3nsH2c3+niIjKgryXYHpu6SnlCnk+GFzYTbv2R1Obdu0oZrA+jIH0IuNxGZm7E1ayZgb0Y+oI3p9yjQphHz58dtls/IG5QU0X5JjE2ei0yjyzGlKx2JyN2Jvf2g7IaH00ScLJWtpyLAROCeZDh2OgqZTjVxda4L5wT0kBexGMgL/GxcuLCygIrzoQhEWCG4knOACQe6LOEgAUObr1vaioNo+6KHlRmwgFEv7thmbmodLx9Yv6Qr/Qxe7dLNhT8gpi4zdOex0iYB75qvvfkSpySrgo/rRs088iqLrTiVisjqBhX/HtPX1ki204IsvaM5bE6h540C1gnxdY860kOO1X/Q7LLlPP6a3Jr9GrW0sOT59/rcr6ONPv6R52PRdWoWIy1B0NCP5RRJf8LcIOLwSkL+96JffkLG8CBB6TvQyinBvvLajhZLktybGoefTntuSU8GzER5PRskOl+0cPxkFdKDjFAVEIS6veRo1ek3qAaNTyNS6M6uE3N+3OawxXaJ5Xy0TtJu3Xn8Nbj1/VeiNhYxLL6SXXhmJEisn+mjemxIfM3MSccGbhqi9Alo32Y3ecW/OnE2nIiPp1hv7Ur/rrqV2bZuQs4lxatWI39lgccCNKwpooG9tjjnzZ4vXbKcZM2dCKA+gu2649op3fZcr5JiZ/IIWDn5+talXzy5qEZTCa10RO6Jfb0r+yvw1b1xeugtGwFUKej/9mb4G6O79991NTzx6P/m7KYaQBYvs1Ol42rNnH+3F6xRa8BScLyAHWGMI8VF+YTWUKvhTblF1OhOXRFd160lBwWFo9AgmiPsoQlOaqyYXBiJlDUuhtfC3ql8dn1OYn0fnC3Oh/eMe+NwNmTT+Pu4UHOBLDYLrUFi9muRhuFstxGgITxmx9NdSiRH/y+7K4mJJkYmZBirvzjCLTHPMCeuGK3OGGq/w5v1R9B2Exg4E2G/q11cEhw9oiWmB15rBDi7AzXOB42I4f8/xVHoN3Qheevphuv2mHooazELOsJBY6fpk4R+0auVymjNjAoXU9bIwI34WNAynFweNIm9vT5oz7TURrtwLjp9a0YLaMPq5dx6LA2L7B9Id+1YkEdx3x83UMNBL3R90zR25+VDeB47hGX/jLTY1nyKioikKCQmpgODLyMiQ9/T0NCoA/fK9XJEIFlIvWOqwuqK0Qru6NIqGrE8lesGpu1cdlZkBs5D7buUW+vSzL+CtGk6d2zSy8M+fVm+nd4D5OHH0UOrTrbUFzEItN9OLFlGKezEYAXsA+Fj82zaaPe9DCkAj28EoqereTnsXrDQsFp9xDeZLRezGZ+uyNJwuk0S13Nlms/74GzIp572HGs5bacDTD6hOCYZnQBF45Xd3Zeb1Ys4t113JQ446m0BfLfyebrn5RrhqVI+3IuwYiZuV8ky6V5W9VGs9UF3kioxu+hbtIhaiPU8tdAluBoBoDtLHxcZRMpo3cpfiBqGhqM1rRmHorFyzpjOm0gHZnUUUl5hORyJjKTImhZzc/MjdC8W9WFCl9VgPbUUqdqnJCGRwPh8WXZ5oOEx9khQATlPdAfVJLPhg7YnAQ1O8QD83qh/oQy0AKB0U4EzwcFksPP6NinNYbb4rb7kvhkQq+hvrDrEKuWIrYLi71fxUbm7M+qxZu1VX0RuS/2KlaenKzfT+Bx+TJ2hpAhhL++Yh6iEMM02djx5YILwBL49CXKEZvTbocfEg8Hc6lsX0yZs4BR+OGvsu4hlF9M4bQ4rFNfiyq7ccRlH6WzR6xCt0fY92hkWo0vYVmpASsHys2XoE6eQTqVHDhjRo4POw+urb0KlSIHXyFj9TNnjVxi37gEC0jo6fiIJyV4Rs5vnp7PEAACAASURBVJoQqt7kgYCyl5c7su78qS4y73y9PCgwoA4UM08LbdoiaEgJhKk2tcAovdAQTpVbm4rSx//WeYrfqLZFu48noEHvOHoM9cGP3d1fJiITcz5+ynuUjOS7uUhmgodd0u+FO4lCpISconwoaviHrh1+//Ml8Bp8TnfccStc3E+Rr+GSFOR/896SMhWlbKmXKaJtZtzm7VXK4kehH+KnX3yNTgMb6QEYI88+cqfaB/JbrRlemZRTppDj8WuWvXrDLlq6dCm98OzT1KKxCrxb9Qyrs86eO6UA3IIXQM8la6o17Jy468hZ+n3VGopG4TgLGy9PT2rRvCl1aN+W6gb6kpEQVGK38HW/3RRHqzfsppqefgCYRkwGWrCy4AxGKFadecTQeArzYa05UIsmIUhAcaSc7Bw0LMxAV+QMysopoDy2CPn3QnsQfGgXhEoQ8kA9SD2Mp0WT+hQa7AfLk6zasmlerswl/7uYjdqg+tCCpDRxVnwlLs2YzB6G8BPxQP2fRBmwcKa9MZ66t28qNzGa9ghds0B8+bW3Jd48Y7Jqf5MNWmWyYU8BZ545opwsKjqfxo6fDJdQH3rxgV6W2jUdxB/z1ucAit5H33w5m9xZVzJPArMZmIec4h2FAMpzA16l2r4+NBsZaf7uBm0a7iv9M3Ma9v4TiQK5xJ0Q6tcLou5du1BrxFs4IcENQtzFBclTYHL2cKYtnknNg3iF+N+GFEebLbTBOgp6T0GCQii1bBb2tzVovTQr/O+5iiXhCEucDloaMHg8eSD+P/vNMeJOjAJcz9DXJlKn9q3ptZcessC96Se0iiUrVit/98m3v9GM6bPo6aceo2EvPyI0y0qKRngqznMUJVpo3uRNKG8m83HNXHgojp04Rb8DYnEDavNckcPw/DNPUP9rOhmW5XlYlvY4fnlXv7zflyvkzJrtoqVraMWKlXQv+nj17tWdXErJx+c01oSEDDoJBJRj6Bxw+kwsZSKOxgdfj7sc1IM7JSysATVt0hguRi/S8VEWS5nZKlnEFYLH2eYeUheC77RWE5VYQItX/UV7j0aTk0eACDl2RXI2pTn+IDqNZdcrZO2igjwILAe4qrpSowDcF0Fc9vjk4QGSQITRcIHGAa0+KQUpvchW4i673HvvAgReIaw/x2r55O3uRO1bNKI2YBB1fKqXZDZ/Bze/vDRSwbsVF3Is3FhvPHcul7JzcqgAUqMAigeDBvjD8rDIASNmVcGblHuakTsiqg3A0aFBT4CAOEBvoSazd9c2xqbHOuNfKTDdZs79gTIyz9FNN/an7KxsZLhlUTaUnQJ4EiQbE2wkB9W46cjSDfD3AqBzDXKAy7wWhIunlye51PKAi/RnZMC5A3nlASSwKIXHFhGTrcK3P/yOVq3+kz58dyY1CvJQcWLt6uH5Ek+AVS34fvlWenfu+9JE88knHqJOHdqSv2cNu+UEevalXEFLWUM/44fWpTja0bBq7RYolKuhPAYh3t6awpBeHlo/oGxA3nJn/795QjFUDuMRy4tnKgseJ3NXbry9t3AZfbPwG/oAbXTaIP57AChOw0dNBMj8nfTIHVCcDEGl2YU2tITf4QLsUfhh2WZB+Hnq8Ufo1QEKkFkDKZvpRvgse9pKEUB8Dy5Qz4OWVwALJA8MLwu0z51okpKSAMkYRycjIig6OhoKUCp5A1mlN+J9N/fvQ3W9lDpVyNeX0ExlvTKXn0bKdVfKhPFaGWNbvy2cvvzqG6rt7w9Uhp7oAxeMlHxnSQQ5l5Mn/eLCww/QkSOHweDAGAJqi1uFmRsLH67/yIDAi4tPorTUDGi4jhTWMBRAyz2AxNCGAr3sAObqJl6YUp3CysNZ/mc4vfPex3TuvAPVDm1KXgGh5OFTW0YrQXvLfCrDX2U8qQdiS1HSt/MykVnpTr26t0espTpxEmk+Fh88To48vIMH0mkUZp6Jjqek1HOUlZ2PRWaVGC8krTggCbwmYMEbhdaltnDn1g9wl5IIic3IBCrXlT7+mxae1YrTZJ+dW0A7d+2BkhONAle0c0rPEKumedPGkvZf22h4WizGewn2gKy9seuzIF0GvTqZ9iExacb0qWh+2pCOxRbSwZOAoTsdSxkovuWVykHmBuOsCl3A1aCUovOi2FQDjXKc6zyIogjE4QAlR1x7OLcQBFXDpSbVgNbl6nSefNyRuOTnSfXr+lFQHR9k8BJ5wRpMBSG8NHA8NUJK9+Thzyo6lpxrZkgq85JfTob2Nv+7PwB6MIfuu+tWGjnkOUvDYOv0mOdbO6LUtwaJy/VE5uH/eLw85LTsCwC1nk+HUQj/xGOP0NXdO6Nw3RrHKbWtyiVYl3/lJYy4PtOTlluKJ6r518JO72k995YEJkNpOQkr/oUX4c6GsBgOy237oVgaM3Eqvfryc7CMEI8TmjWuKW5OgyYMAbdu+0nAxI1CV5Z+NHGEAj/QyDt6jfU9xTAxGVjpkGjxiSl06mwMWpvFom4uhZLhsUoDClV+Xh5qi8+J50vDy7mAINj13SA0hNqj9KBVK9TmmVwF/za9vULF4PxQki1mpMRy08pf0Otq7569gk3JDJwLHHNg3zJDCKgTAHivlsC4bIECxDrkik2kiYCvxVotZ4NFnYoH8PMh2rB5E2INx9FE1Qd94m6U9j5hATa5r6Ydwozrg/nfi7Dt3acvDRz6Mq1Yu5d+X7+Dwpq0ROcCF8Wc5D8zW1BCTrQPllHyDgsjPxvu0yJqBwHVHplx3H6lGu5xAfyPNSUnRkAC0WTDyktKO48YJQu8OCAJpCE+gsQVWHdct1IIBujseIHq1fGiTm2bUtMGcGVC2DG9ibAzGJD5/V+58UsdtMmEwDl5oIkkuMJcXGuJIGD3bzhaOC1bvhzx1GzUbb2EOQqQxBANBFDh+Shjp+k4mCDlYLfHIr1/5LhZlF9UjfrdcAOdxEZPOYdYbHVnxIA9YNEXUmFeDjY63NE4n+soBXYLF5DCan4ZStMFxloF4Ygg5JhbdSdycHIWi+w8rPsLRXm4Xg7o6YLEBP3gmmzWHBlvcKFPmzqZesKaHPmsgQ5hMEojbCfUwYkFv67aQ68hbvcI2ge99vLD1ixRzc2EcEuqSpLTZRxyqmHJabfqAbhwZ8+ZA4ZaQGNGDqVGsNzM5/936bLCVFU8BmPzM53GoZ1LerrNVG/mc1rg6XmdOu9b2rxxM33z1VzafyiGJr7xJr0+fjjisgj/SA6B4hIauk433D0SlY5u3cOoUaNQmjNrjJRasZKtrCh1R+Gr4EE1jKwlvtLx06m0dv0G2rFrF4yKWOzHfHJ2cUUbMz/EcX3x8iIfbx/EcfGOl6+PF4wSf3zmivCNsh6L8U+jvrLURIxKTPPlPLVCQk4mEZNqEXTGBstA4seJEyeRIJIAqJga2NB+cEPWUzBJdo7iLNB6AueE7Qg/ibY+f9L2HeGCq9e1aweBiwkLDUYMww2LB982EgUOHz1JXyz4lnbt3k1PPP4wvfTU3cQy6OOV4bRoxQbyq9uA/OsESlxFMSZNBIorXjDQMFSs1Oi5gFMKQQAXCnOkSWxrtLxoXL8u3GogHPi1cnOh4SNQ78iD4HJBnA8PHNyZmXQ6NpFioBklQitiAF52ZxaAYTpcyKd6Ad7UrkUYNQ9DUaeHVdj9G0z8v5MIufh5zvsLaOeOXfT2W1NQquEumV8amuj/e2/tXmLt+AKEFm/W38Oz6Kelq8kFCBIOwFR1dK4pQio7O4tcECCu7etJnvA11nRxBEydC9YRQgxEJBmOzH5wrXzQQS4UuZycXAjsAspCo99cdvcgKML1mMxqajg5KlST6o747LwwFhacLrhuSuJZCoNrnptihvg5CrNiqtQJL0zHhyLSBBasU6eONH3Sy8obYLiyLO53Q8jJfjLMYDPDtY0iHDyVQn+u/QsF4WukdorhpQTr07D0xHrj/fDfdDGUT05mo9g0B7b8igVHDj4E6hZe+VB68xG3KoQ7PhfJa+wFgELMShLCMV4ebqi/dSHu5KTXY8/JZHoFJQMjRwwnByjis9+dS1MmjqAOjdn7JGoJKE0VDuh/JWUSDRk6Gu7ELJo3dyYF+dZQnVZYSzcGKOLOsPj4YQ9GJKDh7nLaAvQU/qI5avCaNw+T0FC94CC41j3IDYMqb7ktirkktBg3K0XBKn+S/7kzKizkLEM0MoBK7fZYlngztGKL/mEHI2x/RDr9sWYdAp0bJC3a29eLatf2F004MTGRTkWdoroBdVHc+iT17txC7sbTv3x7JH0CwN4iR9S4BYUgKO8hzIHhmTREk2RdGuPTwEp6uOxKZddjdlYaGhIWAJnAkxrVC6SGIUGIxTiJG5PL6hhJgH3dzggWclICM6g4NF6IQtzxFCyEhOR0MD6WsEjZRcyvGrI3AyGkrwJCd2vgdNaBlajrXyxan2ElK+asyhD+3YexAS27yP52eu31d4CBmkHvzBgvMVZJcTaa8vLzmwuWFUOvGCNWlhEEFFvhMI0OJxB9v2wTZeTBFQmrqxCCizNnsUJIuKhLzZF45OftINorMyQmBUvyobHTNdnzO9MBvO4QcucpAy6JDARzk1LSKAH0mZmVA6aHLx1cIFC9IEhUw9Pz0JZq1OAfZyFel48WP7hvw2BqEuZD3OCeVxz8jIYNews0HkELv/yIfEErkvxiNgmMSdBWmrg58Tser2amDEB96lQMnQTyxT5YzkdRM1cDLqi7kPZ9942qw3lhEdzsXEFvuOH4s/+6q1KXFImHx9bMMm04pQ4rjxMnJ8WlwN2M7iuJ2NuJKZmUivhsWkYmYrX5ouzk46UsMdAXJtEJHR5qcswWSlNYsD81RhijcbC7rPGgMe9C4XGjZi1a0urVv9GU8cOoSWAti8BR7nEVSolJLaTx46fQ6VOnaCYSldo0C5IxWV2hhocBBMvno7qEFiz4ASVfvyJe7C0dMPrAPdoItb6lHcJxTMqOWbCrFAZtMar9p8zH8sTjlcW9Ki/kLOMvzS6z94BmVYm/LzlJev70r+NTC1DgfZAOHj0GwkqBcMkT90/LZo2pR7cuVBe9epRIUAziWHw+Tf/wW4pOyaOa7j7k58/ZZ0rQFTARcl0c10lZkk/UAupDEb3hF4c753wBR2XzkFjiSg3rB1EYLLsAwAeAdqWYsxDch5NbqgF5wBn+aijuBExVOhWTSifBYGKwM7Kh+TMjKczPoern8yiwtge1a96ArmKXKK4juZ88HgZYNYLEosPJYP5dhGSfrG3XXZ2lsger0SmAmI4aPUEa3z718C2ygRWzUJ4DOVRdhnWd9D4z3dDsCradNeDT0teL99COw6eppncdcS3zDbgm0snxPN14fQ9q0oCTkDAuuBR0E1/oO3LIsmAokIvyrrPY2CvEMoLvzegVLFDB+9BtI4tiE9IoDq/EZDDCPO4u4Ag4OVh4fD584AVwAxQh6s8oK41QHNy8cRB1alGH/tpzlka9NgoJLE/Tw7f1Kg6KoIWtzIm6p4rrqfdTcWl04MBhKTE4fOQECsNTAVtXi+oFBVCXTu2o5zVdydfArlO1gLrEwWIM/tt4l32SK+NTBQYgq1rsLLNw52XnHmnxyQXYy4l4z6boeNQjnstBbD4X4QkoHYhfVMd68joI3zJS/iWOK4TCOQEc2z8HL0I++XjUoOaN6tMNfZrTqjVHadGixRSEHoVpKbGw1kcQGgmI14kFpF7PnQdP06x35lEaukZMHPsade3QWMasygysKrpOwFuP1k5foB1Z5MnjdN/dd9Adt91k6fsp+8rYN2aDTMfCdcmKvJtmxqoU6N+r3fUvk3GlY1eWTUG2Iqky9GaexmIqql6GEhdjxHlO6YbHx5K1JsCiUsitBAJny33y4xZavn4nVXP2gOBB8od/HYm5sKuJNXflBijrUALGGQgEXF4grwJcGcLOFa7KwDreAEoNovpBteHDFsMPbgol9Jhg2LJzgPCCMq9AUiPPAkU8RtydLMQKcR0Xh/NgbHVQFNqUmjX0kGxM4V9cm8datZUcLQMtL5OrMrP/z51rX9FZumYnukd8TC8PfI5uMhA/bMcoggQvdhWdPZshhdBJScmS+n4OQfM8uA1Z4eD4sJtbTcQUvJGxG0QtW7YA8Dfitwt+Q3KSMzmAJqpptHZRLvIRh3CVgn9fZHx6u7kLlmlNVwdRZiQ0pzxBclisOV5vjtninpycwmPj/mwsPxmblQUeJxPHAuvrDBjlKcRwWft3hDbkVINXnF2hoMWiXLqQD3epUxHKAprRju07KCE6kt6dOYLgzRSalvwW3Lg6TDexLgz9R5Km8Np14IxkSe7fv096O7LXoymgnRo3akRN8GrYwJ9cDJ6u6+GUoGb13aQSFNcl/jky+VvvbMRYeVZN68q3ZB5zNq4AiEpxdBYhiKS0TCArQajxhFfHxkbdBYcjREFD3gELTLbQFU8xdi32eHUQgYMTO6KBqsMkBnCJwrwsUXKbNg5D+COfli1dBpZyjq5q24jeGPmExW3NqxERl03f//gz/Q6Q71Ak9b0KVJE2TYKMsm4IabmVSkxhGuBQz1c//EafffallIG89PxT1K2dEog6RmuhX2NuS6jPNnOhl0CezlA2hewqUYLwty5jJS/+/7DkKnmnUk/X9phaPFkcJiZ28eArB9aAjW+E2engJ5/Im19+wVYaUWQS0az539BJwH/VcPMRYvMBUosXGrhyUDaf/UzlWkhcuMsqDQs8gDozQUOS5eVC+0ZigQv6W9T29UCdXB1qAHdmHX+FIceXLoLkrQ73mPS+ZO8n3k5HZwEN/CTegQQOva46b5a8bGTLVUOdXTB164jkHB/DE6/9BjZU+N8QcmYCYAYru0bmiMGJF/30M918c395+UGD4CXIQ+o+pzGfiIwEqnokYKrOIjMsWTY6CzTOeHRFA1AG3hbcSXyRi3VKB4p7NgRfLXdP8g8EAk51N/KpG4IfuYJRsYTSY+Gko3NgRoVIGHLAWiN2BsnGLycngN8ymDfcfK7cRgrFaB4e7ii+roXyAShbEGisRessNjgaIGgLBaGExRGGJDQA7zaBX9JxKDwHj0VCASqkGq4oHwAdFPH5zCzhNbiAGszzUILqQOjee1tvauCrAv8CtowxOwpYAe6BN4EFgyL18SdfAy5qvcR/ruuF7OSr2gOGrjbVBWiB+WDmLLvEUMENOVlyR5bgfpdqj18519FLz/PKVlsilJFDx2Io4kwCJaA+NhPZZbmgHVYAnEAHbJlJeAIZ5KzIcJsapj0X0B2/K4wu9uwUirWXjt8XVXOGxQW+IYoMK7isBEEpgfcgE+g0p9CoND05ml569iF67Jb2FJt+nvbtDUeMeje6EOwCL8mnW264jh596B7ygxXIY0bVrwgcDmXodmbRGYU0Y/Zc4J5uoPvQRf6ZJx5G7SXGrFijeCWKOa5KXQbtPSp9nQT8wygZuHJWs2IjucKEnHXQWmMRT7dp86laN6u9o7JuDTUUb1uPpNC8zxZRai5q1jx8YQFeIDegQtSuXVsYENc/lb/wKiFFvXB1dnWK0QmL0LDwHHFjLiD38/GkJg3rC8KEBxJCmTkjWU8O3gMi8PDZoePptGXXAbhez2HDuOJSiAsVZJOvhzNd07kldW0TQAjBKExG+YnV8vnPCDkRbDwz6tk4dV67SJahbcfX33wn5SVeyPhyAOJMNrpH5MOt5whp4u3pQaGo5WrZogXVB0q7J/5mwcMCTlnz6rIsOM6hzi02LpHCDx3DnB+i1DxHqlO/CfnVCZZEAevssvsKiSXMqKAEFcGtrdabeZfyT7LCwy+Jt8BHyckxrrD2fDzd4YaqJQDfXgBl9vJ0RWcLTjxQFr5Y9+KPVjQArzaYKOgT4zl88gwsfggiZGYqGDhFa841wBgLs8nxfDZ1BAj0NZ0akT+MCMW0lHuRyelobDaNRvZlUnw8Pf3EY3TT9b2RSFLcBaf0JRMNGbNuiUfZ8gd96n9Q0FnIznjmDExoBAr89x05SRGn4yglI1sKqqtxxizmma15zjHzhvLgC9D2OgBvZ/pzQV6AM5KUoA+J0OLrsv7AHhyx8LDfocvQHxt2IlYL4eZQQ1nfoCUHKL8cukjEmqXExVJuZhI1axQMK/4CRZ08BrdkLHnBC9Gje1f0i7uBGqFrOB9aYDHf0+5M/nz5xnC4M9+VxKih6Mp9K7Ba+VAuf81DbBe55N8ybmXYyr0S4J5NgVaWB4FcE8Xf/siJ8HG3lnVpF2f5V75yzrhChFxpE1Jyx9nilhQvElDXWb7tNH2GJJS8aq5gJq4SGPbw8CRvH1/pVi6+ZsO3XfqdTRamIeAsiRDMQDjzDgKPMymdwYTroDYqFPiWDeoHgjBUvR1T3HkOJDOjxEZIRsxmw1aOm5yVcbFrowB+e4eic4CeCqZb+rQnX2wUZsMMGK2fvixoNPvjt1pKQvPa5SDPwZ+U4p+wczGWCQmoacwH0XsBMsobbj2ldNiyjsoStfq9uZNwPABrDwCBIzomTsoKWFsOBDZfMF7+yAiDQVUCUqu8u0ZDU5/zya+098gZatyyA8oZkMnJGjbHZ2Cp64NdgixEBHPSokgZE8YWlLYAhXY4aYW7ZbA0gxUIq8/dzQUM0R31o76gBcDLuaGFE5QeqU8zprsa1jYblt22PTG0e/9JkIeT4fpS88kQTNxb7gJKEM7npFOwfy26sXcXalHfTTwW/OJejIOGjqHEhHiahczUdo2tZQB6SZRw1SKuuPQq1eVkZznNYdHy5vnK+N76ELJ72etjFGPzlKTA+j2GxLb9x6Pg7VHCjTUQ3l+sYEg3EgFl9we9sdLqLIqLjtMKuRi3kH+ycOCENHyGklApMTp8PJl27TuMtmHc7YSFHJtTYhiKuy8pPoHysjIQkz1HMWcjoSTVpE6oD761fw9q39i9GJiEOCfYW2BMLt8zIj6X5n/8GS1fsRxYwtfQ0CEDKKyOAleQRqxCa/a4onEREzkwSWuc1PDjMbT4l8VIejojWcdsDLAw94Iy1wqK5XW9eyGJxkcuorsRWPbOlbH4pY7iChByl26GZI0VTdGSzRB03y9DXKMGeXj5SA0fiw1fX8CDAS6MLQWO4yjNxJ76agg51sR1ZFZo3HCeauMBF+DYXSEsjgvwv3NGVZMGwcjKrIsic2j3CMFwLJqFhROYHmuMu8MTaRusuiJwPQcEsfNys6goJ41aNqxD9958NdUGM1d8yrAki8mk0lXtioodzdrtXUl/xufs2XMUhf37pIUHC7jGqNPp0KGNMARtjZXv/i1/fQ2Dp1xHshIFWmiXn4Wqn2X9wSSaOuczcqiFAtdGLSA8aylLWrJLhPtYMswsPMD4h1IwmKi00mFYnwz0LIE5piEuNeC4IOpEIVxqQM1nt6Y/3K7cyZnjfZ4eLoQ8EHKFAYcQLS1ZESHxWoag0+oUv7PVyIKOE1MKziF5BAXmfXq0p2s71RMGOHnut7R48WJ6/90Z1KVlfcVzbRZerDjLF1Z7TlmNJVesInTDDNRiMZe/pP/YGYo+iguHeAi3I2jrtWPPEcTdUimPs3gRBqkBc80NgqwuEGXqI/xQ1x8Ja95KQWWBJk1KNM3hb47TssLC+QBZEGgsI5OQaJSUmolEo2RKADoSl5RwiQq7oyWMIpJQdZhnZTMWkIV52eeoFrxAMeiocg4Cr0njUGrbMhS9/oKpQ8swQsu5YgcnwkSdSaMlK1ehxnQlPAlO9OQj99P9d/axuLRtWzOhTLMMpm/IasP4/3LRamlA3QgIVLfdciOFhoaKi5Zd/5FRUbQBtX1xcfF0843X0z139FP3BD1ooOcr3fj/Twk5XlfRTrB4zL5W7kDX6O+XIIAMRBJPXwgOdjtC63b3IHdYdjVrusnf+cgH1y1RmDKU0DMJOWENimpYyHEXA/k3PtIp7+LeArMrQJFzNTA7T7ixAtBnqXmzhhQS7CbCjpM8+YB8pQNHMmn95l3SQcEJVl0h4jJZKTHUsXl9uu+WboRyGKOdjG0umEG7NkSs3Q787ZFTyYhlxSApA81iMSHuiCV5QiPzRRPFOnXg5iuDBbG7Y8fOY7Rxw1+w4OKoc5dO1Ovaa4Fa4yJzy8XKGplBXebSkLhJwSwxOnPqt/V2FWHNanTgcfTpT5vp21/XkF9AA6pbN1jieY4oJ+CEJA0Vp0OiernNGrHCQTUWHW8Sn9AmGttgWHsHqPwsUjgBRFygSNnkohVGQ/FBhwIfP290enbD/RyQjJJAaUhLt/Q9MTR9iTmza5STGECxRbD0KS+denRqLSgU48aOof59rqaRL95rGY6sgHkZmMkb1Gqx55jRGicJNUssSXE5/pv3y7adRxDzTIIGzynwSMBxgaUJbsmuucaNGkKBY4f6P3tYvRLF6U5bPZoq+MmQaA3hlkJb9xymyOgkxEdV+y2uhfRHXL0BFNGQegGwwBF/44Qhjqsiw43XmmPn7GJkDwzvCU4kyoK0SWaBloikp3ROTMlBQlGOCDbOsnZCfS93SFF0wT5vA2gZ/+b4HdNF9NmzknzCqbys/KQmxQP3NBw8iRs4V6Ng0EhfgGGEhtbHeIEghZKp/cgy59ZJheAxvXtfQ0898iAF+3BVpRGzZXosZVlkXmx3qfAtpUi/894C+nXJcnrxxefogTv6lLq4m3YdQwz4YyRzNaVBA54R/E2zM+zScIG/h7b+U0JOL6dmmPy+5WgKfb7wZ6BcJJFP7SD4z13gvlRQTt6o/OfkBCdJBwZEEyNJWw6rkNPMTn1iaP76PBMF8UIzsV0Ac1PJKoi/QS0MBphzS4A5h9XzEmxDpi6462nHvmT6C+jyBRdqYIOgfgvIK/kZCdTv6pZ087XNRWMqi3iZkSrxqxJvcnDdT79cTEtX/CaC2hXoBszEFSRRkXRzCEbH4UYNwejBMOsgTunmzu7HapSLgtYzZwDJtnsfnT0VRc2gXT704L2oSVRtZYofsqLrAQAAIABJREFUZYmkv4dQL+aqWgsXhofX/K/W0Mo127DmPlQnIAjr7y/Zjrzq+RyrlZsoDEn5Fz4QLHjDfaldT+pb/lLTgvq30mwVerzEVKWLBTAwuYszC1OJ8ykaqsHuak5q0tcyT6kByyMuSrYgoTQ5IhM0LzudYs+cpNGvPkPtG7iJm8wI+Zapa5j3g7jORMApi5GPgxFx0mXkZOQZYFnWAxSZK2JF1ZFg4wjh7AaM2fpobNyO3CD4/ulDuZOZSVt3Bj8fKyqcCMnzwV1NjkZk0fbdh+kErOUsYPNx2r97LZRUBNYGwHwIUImg+MHLx/WOeXCzsFeHm+k6w7oT2Y9rcdF3UnoBwB5SBdYvPikVLkkU/8OUk16GXEqAkINur2V141sTOVQMlOO5jpSEOkp+OYPfZKQmUKd2Teme2/vQ/PmfQrHcQ3fcfjvlwrLbvnmDZGJz/JcV9npIcOvQrjX17dOTGqMlEx9MSdqNybpzxOlEuPmjpbs4F6YzelSLFs2RiKLiaUaagMXtzQDMk6a8Q+vWrxUknmu6KFxX8WyZF9n0R2JaHr3x5pvCQ4YMfFbu/2/gBP9JIcdrpF1yTK8RKefpm5+WIxZyFGnknuRc0x1aEjLr0I9OYG7gwmTrjmuoCiAAmSlZDkPDlno2gwFao2Ult7zVHaTa9hRysSiEnVP1QgoJ9Kf2LZvA5+8K6wpjxMm//3mG9h44KbEitgRys1KplkMOUDGupQ4N3OlUcj6tWbNeCnq5rUrHDu3oakBDIYmq2MGAq9Nnfkq//f473YFMq+7dusLFiI69GHcmeo5xoXIMgFfPno1G/Ra0WmiV1TmbEMzWkTcqWyOYk1Ck3t90Yz/UIwar6ytebdn4hg1r3Pvy6G8lCz8qfl9eNhEGIAQGZF60dCutWrcNYNznyT+gHrl5+KBo2w3WdA2JD7IwEqGGtSsu5NQjmxF0tJvbstFL4JNaYcE0A9FCTcAH9Cxqd7m+kLqR4SKFm5CVFPjOCkFHNeG+vLN/V+ra2E3VybHbSIRtSVo0f6IFPr8bPJySYeIuWbYKxcNct1WXHn7oIcDxNRR3HdcNsjzRcVBx7BoMUIS4XRd/2WP4/3xrpQGFBlLMysaFjTJGigAww9adB5ExeVpqFPlsTwAv1guqA3dcCBLEEPfi0hAjOaiQ46pQTpyBNs9WD9c6cnJYHLKEGKA9Ee7INJQScJiBPS4MJsBxPE0H1nkQ7UFtGEyUDnGw9cxWOSOWJCYmiTLpCmUhPzsVMVdXGjdSwbaNGPU27plKkyeOIz8U0R5CSYgTAmb1IFBC6ntTTTvrezwmF8JxL+3eswsKaiSyN3NkXfipudk1K/F9rrsO9Xm9KNhL5WTyCMOPx9HHH31CpwE6MGrkEOoOLwEfXIguSVYGHRYjR4OxJabl0LS3ZgCNqivdfdv1/58lvWy//U8JOfOi6AVlBoesf0GTWLXuAP2yfC1wCwvI0y8QoNIAjAZjZ9cECzt2YbpB+rC7QSChDLXGQsim1CLbe1kYVomlUzEcxrUsAhG6AsiZO483a9oAwNReaIBZBHy5rQhgI0WZyyWw6TJT44HpWIdCYQF+981X8IfHUdNmTSkH7sdIpB+HhdZDBtb11PPqrsiqq0bp8H7MnvsF/b5yBU0YM5z691aZVqUdSejymQi08YSEREmX5uerVdOVQgHJFoQsUX0wTqNsZs0VLduk4kLmUlGyKbJU4UvyKDkrTV54CJYrjGCx43Aq/bZuO7RfJAFg7hxgRXsiKckFFgwrOhZ4MS0ZWAEQ40c/t3pXf1rnwsz45aecpML/2UlysiRQGZmbchVbotKAvfi94GVyMgmSUjxr5NOd13eitvVRA8pWjbYqKzgzZwGNseqPdbQG5QcMon77Lf3pgXtvlP6IlrU3hiNzaBmbFf3i8go5tfqWejSZc6u6JUklEMrb98bQjr1HgE6SLZYeZwfWh3Br3aIhEkpcpe6RwddZkXVAgT6MK8mMZBD2hKQCOokSlTOxSXBBnqMcSDU4amHVY0+yxQbBJg2XjQnSAr/YognUljpDCQsF88YCLh4xLRYi/HUNuEELspMp0MeRXnn+AWqCIHx0BtErw8dRCoq/p00eR52b1y22mlppz8RYw/edoHV/bQW04X4JtTSE8L6qQwsR5O7smYHLNAFgALv27qctm7chCxggFK1bwF3ui3KcKNq9azeU2UB6deAL1DRMJS5ZaFTp8iUOnYTEe+ggFIgffviBHnnwfmrcsF5Jd2gF6fBynfafE3K2fEK0cyYsI818z4kU+nHZH2jNcwb1St4Qbu5YJAfBHmTt2gUuDTfEsJjhccmB4Q9UW8xYaQW7pbacCAE7RGEo4qq9D8sJ4zQWdoWozfJAurAXoHe4xCEdm4rHIADYiHg7YjulxJ+hfTs3okFrIOppHkNNXW3phrBz5z4gJvwiLYzCECdp1rQpHTt+jI4dPSIdgh+8vbfQDteDCSuwjE25TSoinoShm2m9OG+/XLR5Se7Da6SEnKrJY4WHH+fTVQdpwcKfoFi4CY5gDUAtOQPX0hkxGxckDvD6c3an6qis3I02s2KiB/tCz2I96VoC0xNpWC7+yDLX9jQnQ/ox/VQHE3VgJQjp5t4uBfT8o7dTGAdvK3AgM5x27z0gbrE9AFbPysqka3teTXfdcQs1qYeiPBwFYhWqRCudgWwrzCykcFktOUNZkF2nDo5Y6vk9nohmtBv30LHIGKw1FFaYokEAbmjdojEUN7RDYuGGeFsBN0dmJQZlALy12R0ZgZY37IqMQQE4x9jOIxmMi/ZZsHHqpLWYyOSaMxQLq5jlgakxGh5sKRdgt3AOkkySIbjyoU2xoOSyGY615mXFU5tGfjRiwH3kxsIWlzjNMF4TptChg4fo9ttvxfr0hJfJR7AxWSk9dvyEYPZGIRnEB8lzPXv0oB49ukPQBJK3veYtuGb4sWhaC2XmILpOMB/0QklE926d0Q2hF3m62JNmxgTjKy3YLLocy3Bj//z483KhlbvvvLkC1PfPnvKfE3Lm6dTatJZCWtDEg7iX/LFD4jO5+Q5IyvCHq0p13y3gbDmcyJ2XPVAb44paLCFYubDSxDRBC4NiwWFnw8v5otgpIaf+Vm4M3p7ccbyAwXuhdTlxNpakBWCTIHbGmt7xw/vgznCjUYPvoUAbAoZrnDZtPUDrNm6Bm+KM1GndfftN1K97Kxml7jBsnQuDCTNzkLGW5KbqEyUELV4XfYFiEu+fJdjK3p03tswHnhtGNMVlXqA5H3xK6zZtpas6d6W+/W6iI0cj0Hl7FxBEkHFXk93WNcSFyzTAMUt+d0D2hbLuFSCBqlsz2JzmBpo/sJAwzbKmAVvaNP9duvKhVuY8MkE5BuuCzLq8nCw6fmAn9e3eloY82lcYJMdlOIMXXmjUFyKJSdpZxYOJR+H5jtMptDtKR7KEP7T5rp07SKuj5miiyOoai28BXzfoQ9GAPYlroqjLKuSUSqnmlP9TBdGcULTjcAqt3bKfYhMzoDCeR/mGNzqJNAGaUACalKqaRQZpYAXWEfuIyziSYTUdPBwt8HsMw5YPd091ZIM5wqLnd60Q6T1htV8VJ+HMRV1DyyOSdCNjw3NSFifucJ0ZC7dsCDmLtOD9xQoyYqy56WfpgZu702O3dgPPUcKD1RUuc1jw9Y/oAr9eXI5Md4y1yuvjDKWL4+m9enSlDujwEhaAmIdBZxJzM0xuGQqPA/fSTvE4uGBzkbHrgyxpD/bXGr8rS+m18AFzYoDS7JE0lY2ElSXoGNMTdauBQi+X17qvOCf4Twk5/djGOqgNoWSMrIzQAP5gHzhDJm3HBln0yx/ofhsN5uYJlBTUUHEcDUxM7CAQiSvceLVg3XE2HoNEi89bQJ85hVwtrBINVnJRRKZoW4L8ZmvPtEEs4sZyDVhxGFw+MjSjT52kZuhe0Cy0DsVGHafsjDT0dmpFN9/Q2VIrxqnFmcgcZcbnxUhCpoPvausmsyQDWkS2Hp8SexxMtwg5tU/UzJWW/VJxOqvUmbbstayNWNaFtaBh5YUF3KmkfBo1ZhLW+xgNGvQC3XbrdeSBZ2NX9t4D8bR67VYKPxwhNU8ct63uiG4FYHxs3dWAO9sFL0755yQCPSZ2SxUhI0+35JH5Mgs5faL5oWweqGxxopgoF7kL+C/KN9JTk4GacVQaWD5+362UmhhL6/78g7IQe2VM1Qw0fuU+YSyHXJH3zoytZYtm1KVzR2raKAyNVzVmhoq3qkXWLL3spfqnGBnvZaFpzAaPPhl//LHhuBT7c1NbR8SvwkIC0ZOyFbpaYJ+C6/Mc8HqxUcaCBCEvOhYVDTe1AlLn/DNuAcUJQPzSmYg8A1YlRe1tSwxQZ0zKp9pys6bTZ8P9m5aWhk4VQEiCcGIAAV4H1RwXQgf/PpcWR341C2js4MepKbpS6NInfj6dTHImPpOOR0SKBccCmsEsgoOCAVXoQV5GPJ7PZwFo5UFKieaxa2WWQc/ZI2UBHK/UTrR/sqEz0saN2yRpr0uXjpfgqn/fJf6TQs48XWaN1MpMVGdwPhJg1S36dTNt2LaPMrFZnJi5MVK9SuKytBdii46FHQs6hvZh4pXNYFxUCTTNMFhAqn+Lu9LyueGasuFqRuRL0vO5aWYimFZachxVA65hZtJZYCoC2gebJAr+9Ftvvp6GD35M8O7MB2dWJiSkyxjq1PYkwC/KwQye788bTT+zLTmpU5RqYBG8Wjng939AyJmmzKQ+VH4jCIo/xn8agLtDR4yjVOBdvjFpNHVpHarWBy/lfIaww//tDI+hP/7aJkgYnJxyoTrgm7iuTjpPMLSTk7SVYqWHtWyO/fC7sugZAFwVjou7z1B0DBVCMTvzI5gf0hhDySdk+gG8HJgJJzBk55xD5+ZoxHSyqBYkdz6QMzJRehJU24vqI2nIHYqaF1xZ3ihZCKwbQIHoD1bbB7Rr2/1KLbeVRuVfmhJLn+d/QsjxUAXezHidAHzfyrXb6CRiqqyQeqAQv1O75qg1qydwa7lYNy7xwBLJ4p6JvQDEodN05ORpykCHiOqA+2PQbHlimQcF3i6p/yXWQS2aVpQVtJX6j+NT7JFhRbYQtbIZ6ekSf+PsRqYB5hMsbFgh5nlzxPWzM5JR6J9AT97Xn+5FXLUYORj0UJ6RbKYhFqR8MG2oLGq1kzWAhPxlua7OFFaK2MUdhuGA32cgzBIPb0G9ekFQAO34Sy/uBpf8V/95IVfqjJk3OU7ajmSE75espsOw6hyBLag0edbuLhhQYIp4WLgpgYcYDtyMnKHIuHai1zGBGUSm6MrYNPhMxXSMQ7stjQw70fCYSBFvSUvhjulJwLaLpQ6tGtLLz9xKAdisbG18+/0amg0onzvhmhw1/HnygiDjWMu+A8do5e+r0Y39qGy+Bg3q051AIe/eubm4QOwdPD4GvWbL0ZbcrdBiignoOEN51FdaDVN5v7P93pDL1hm0UQpsz7fdr9rNIpudsyrhAho4ZCydhWt3/nuzYB37GgqMupJcHpOg7ZsMfBB+KJE27jgI+KcUaamTjtYqbMHVQBamYfaKSKgu9FAL5RloDAt64Atx7EXmDDdnJqSYDgaCz1izVtY9z6vBWC1M1EIgypIwHkS1b3GgPLibOAnp3LlMxJkcIegyAVieS08/dAv17dzA4prS1kDpK1/8m+LTW7G4bWXX9P9zvt45PM7wM9m0bNUWOhsPfFrMtz9KHHp2awfXqydi3dwKqxDZsnDx4WQA9aC+7DQEXBQSSTDf8FdKkTbPuwgEtfB6/U0BbEUXsp9VbNsq3NTnbL0XQcBlYS1y4SMuRDqq4FzKuSrZTEUGWODiOtj/WekwJfNSJTv2yXtVIbfeX+p+xm9KmSy738vgy/nh/2fyS/zWRjMz5uniheYlHZzdi/3vCjljOkyyjpBgRb+s2E1rN+2i1Cx00UVaP7upWLyJXxzkrrL1eGWhmUEIcnICu7HYX64SFRR1M6NT70oT5Ho1JnQJTuNvFmr84kudh7nBGmEa3FCZ2AiO7PQHhqG/Zw3q17MjtUcvujBvpYp/uWwLvTNnLhJOGlO7Nq3p8KHDSDo5BlzHEKT1dpPA+saNG9FL7BjcCJ3oWhSWBtSpLfVaWQCQTUHfs3hg57HWydiQrIEFoR1Lk8ZIYkFTxboACOZDXEP4P41rZ6Ue84wV/5Q3vxQcX5SSaGW1RpVZMYKtqDEplhTPr8Fk0MSeXh05CXGpo/ThvFnUunEdWQ+VEFRSc9cuXR4N68h/HcmjmbPfx/rCeoMw435x1SVm54wkBU4hUDE/cWFKxh6KguEfY1pgq4//Zi1bW3uizAiN8ONZTL0SUyYCzhCG/M6xnWS4rngdWQyxVZAHIeflep6GvnAvtQ1R8ZmSh5pXc9mLGRdVKRTaTin+64taxv8Hz7JHWWp8ih63A/918W+bAI2G54f/zcezJt3QuxusWG5UrDwODDAiMbfjZ+jgkUgkk6ClkjMa5WLNqkldolZGLX5atQ5Ct0o4KanHLkiuU+O2OSo0kQsXpAAsgBcwzF0OrGoRgJpo8IdYVJYrYr9D+OUjhpqTmYZWRzXovtv60J19TDVp5km2MwHCLy5uQ/0/VqKsn5pVostNIRf3SP/zQo6nTZDpOZjNMWHZTGmoX9tMO5GOXAg08VroYsDoq5yGrhEqWCNX6rbh6sMOY6HHmj0zOLbu+N/ipsDmYgtQuQ6smhBriawF5iHzKgcChzsdsMbuWK0ILXmwkZBmHHXyIKCHnOiBe+6gh+/pJyDO6/dG0Xc/LIK/PhEp0nXpmq5dpJzA100RHcfqfl32F/2++k+KRm2cI9xrOj7nBneWG2D0uWTADcB8BUA8T0wE+kZaKtw+7sDRa0c39LuOWqCEQR/2yNq+qOP5uBitUt9BXdUs5PgTtkzikW1zEAI9G+DLbNnU9vdD6nQD8qpVut1yGhlGEyZNQ/f6CHobTSc7t20gjyR4ogZDMy2HRaNnC5d1FL7yhDk/IV17A40dM0KUmY1bd6EjwhmknKcDnxCdChCv42w8zpLlcfM6CwQW1lG0f7bS2QIE4gWjXgjIs6DZg+kaAs+WVSgDAOg5WBtOTmILLisTtjwG6wRmLb3HcFJeTiY5XcikIc/eQd1b1ZOEmNJq5spiTebvbNnI5WJjJcdgKJNYJ06q2XggmX77czsguZS97VmrOt16/TVUry5qzrgMBDogd3s4cjKOwo9EwIrLkC4krvDIsPIhSqaQl6HYcIKZuQCULXChCfXO68QKRW5Otqp1RXxPAMNxMxFi0FTVu+i7wgiUAqMoOB9Z1PlwKRfkZEC4OVO7Fg1Q2tMd+JT+Mn67+6fUD/kXSjW5XOthSwfF/7ZdrStjVKWNuUrICV82ygMMlxJbDchRoF3hp2jNhu1AK48EvI8bubp7iwtTXE5izmlqRfIBJ6sYHJM3CmdkahOeXZraXWXRykAXjLLAm4Z3nzpfBoM08QJydcwHNt31gP6pScuWLaXfAMja+9pr4KYcSD7csw4yNj09D0kFzpb6Jqv4VENLZcw+uGqSkOXF12d4L47X+ENAIGlQ4nqclZWclk8nTkYgdfkI0svDURCbSU1gKfa/vg/63jWyBMP146qaMeNlUFY+u2+QHOGKuFXlD62v6ylVFq7WiLeHH6dlK1YJbBJ/lgqBnANhx4XsAXUDkd1Vn0IbhEpRPycgcFxk1+49qOX5UQpvx44eQR1aAOdRbmOaJYvWrm4m3+Cd43jIMqel6/bRuIlv0JDBL9Ljd/aSwaVDAEZGpVMkYnZHIOyOnYqmNCDOV0cbn3z01WEB5sitf3AfniNpG8Vp41xnJYJLdZaX81j5YX+xjQRSZAA3Oc7l+A4bCozGwdZiIVIomT65uD0rMxnd671pyHP3ol0TdyA3CTkTRyxP9zZ/b3vu5WJfxSnA8CQY9LkOgNarNuwDraqkH6dqBdQLgAhtW/pBECkaPnoyi8IPHqOYxFQDE5bjbrwPFaqMZdkN4tThA1W0zbSs1oitNk4aKUBmI2M3svUmHhgDq5H3scqs1WhDKiVGHDastMK6ywcWLcO71vX1pFZNQqlLu2YAgQiUXph6LKXFxyu/d6p+Ud4MVAk5PUMm3scxKZ2NdBba4Z+b9tJfW/eiQ3C6xOoYCoqJXjLqmC+KcLRWTOtYioVhGOfZLobSBBWmoNpkSovMz86g6vmpNHTgE9Stuaph+n7lVnrjjbfoFrThGD/6hRKJJ+Ldks2qGHVFmJM9zTANMb6/Nm+n9Zs2ozzhNLoqBFOfXj2RtdbeYjWZK8b4GuH7D0HgpqEgtb1YiJU/rCxO6Q5KyPEacBPL73/4hVq2bgtw6A6wgBzFdRcTm4BuDqdROxSBxqQxYHYc3Fd3zoF1zBp4d2R9PfHo/eiQrNA6mbHpzEe7MySMSt0XyW30/ICh0gXhnbdGSGzTdr4yGDg3oYg27T5KK35fC0vYQwR9KlzBjOTugtitMwQxCzlJdJCaO9VoVQsypWBZR1NMyEg2npG7ix+IZYhrsYXp5HABSTRx5O5SRM8+ehtd1yFMPaNcwOqcVPRZnBrMf5Ul4PhKFaGjyq93yV9oClAxbUXAnAG9cV88kkx20XlH7DsoUOcyUhF/C4JV1Arzza1huH1RFO0/GgWvi7Ksee6LzYDRcFbuauwNjpXyvLDnRPYcW2rsjkRmKlvQktBhSCTtXdZpWWzFMY0UwRXJCSeMNAK4IKwJupEA5LlRaCC1YLAHdCVpFAhLv4ITdCWn4VfwEa7I06qEnJ1lEYGBz9mNyY002V0SmVhEG7fvow1b9gD2B12euYAYDIwLRiWDUXaPyq6zPQTQ2M7n+jzdjJCFHHcSBrYzZSQhAeZ8Lo0fNYRahioUkh9WbqOp06bTc88+SS89eouKVeD/NOJ4eVmQOsvLPiUyh2dmrL7NhiTbE36MtqNb9XFAijnCH9SgQQMKrhcsqArciYAR1GNjzggWX7cuV6EoNfQiiVxPDjN85a7Umu5GCNzU1HRklfaze+0c8KLo2DQkZCQg2ytdYpsMwlu/fhA1DVGuIUnRNiwrdSeDkRouINsLMwObv3Alfb3wO5o1Ywpdhaw9VYKksvZ44sXDDWnD0/XjhhM07/2PaPSIodLAdA8aYEadjQXifSJlof+KtLCDu7sGWhA4IJbHgoMFrnItsoqjJl0nLckfhsDVTYL5N2LR8W+4xhLWQr0gX6DjxKKmcjfd2LcXPfnYQxTgqWK3KnlIPa1VsFufVAuv0sjS0JUucj0v7mc8Fo5v8rxw2ODPvfH055YDlIuu7tVZsUR92fmCLOrTszO6anvS4WN5tHnbAYpNykIGLNoRgQ4lsxW/F4xLURDU7MoMawWAFQbsa/6OG5lywXYm3MFcR8bxNomhSuE2x885LKFhurjbRCFeEL94XQCeKIcSGA+zUWiwoKsw6kgA0FXcDXe3PUXy4man6lcXOwNVQq6UmWMCt7gfOUkE5zHwa2RMPm3ZsZ82o4NvchqjyMOFhpKDakBcrs4vaOyqSzUnmShNWLPU0haJ3SR8/fOAbMpCDc0dN11L13TvTCOGDweOnRvNnTVRsCqZV773xVL6/POvaMSwwfTQrVeXuu654BLsyuHnYExM7EU5ZJ+LRWP8Ie4arsPixo4Gg2TXDH7Dp/A9o84kU0QErCa4NLkhKTMCtqgCavsCxb0uwJzD0KJE9bS6lAfHuZKQbMGxTj90UNAKhBYGOq5WmrWhnlW5DcXyhiuK42O6N422HvSYpQYL555JzKNXXh1BbVq3pPEjnpNMPU4x4Sw5jSwv1hekDitAk2YvRGbrIfrsgzeIe5eeA1/MPHdB+pVFnY2hSBQdn4RbMwm4f9lsngAqimOwHJMTBA7utmm4I3WcTujPSFQSZQZVzdzKB1kMVB3NdlswgPYDd8Jd7UC//LyEfvj+R3SYCIAC9BT17tLc4mK2fcayEnhsUzEu5VpW5FqqDk7FQreeyKKff9+C+DJKdoA3KxYqhIoj7LuO7VuKINq+ax+dA2irC7KhWQMohABS3SAMpBJ2sOB3XP0piqCh6IgyydmOcMuzB4ItN0uSj2EDinuSlQpOPMG8FyGzJT8vG+7jXHQUqYEOBoHUunljat40VHpJeiEeXssgRCWs1d631qZWZAaqzvk7ZqBKyFVwVrXGy4SLRC6KTiqiPfuP0q79R+hUdCKC3ij+RJm2MzRKKb4EM2XmzIdkxEFzVMJPUb/omNgBSltEexZYRQXZKdS3Z3t68uEbpHnq6u3HaeTI1+hZtLV/8fG75Fp871lzv6MfF/1Md991O9177+1oZApEerjrkpE5eRYQRRGRpwD7dZzSUZTK93ZCRk27Ni3pnjtvoUBf5boTXEqTdJBxcCqlClzJVmeN2Bw7AN4tXIEAtuYO2vgtZ2a6MU6W4h9GrEK5Xi/1Yc+VYy5ZMNdD6nuXGIXhzzVbLxpei9dDM9gFP66mr776ima+NZnaNg8BxikEHLiksjGFdVmsXl6Pl4a+hdipG00ZN6BEyQZbJGxtMtMDKAfN++QHQR/p0ukqQaTnLsxZOfl0DtBN7BVgxA1VZgDmzGg4sE4YYiwHSQz5aKQa4O1Kfbp3RLudzoQWdRZggP0RCTT/0wW0CViF/a/vS48/+gA1Rndpe0KNFZccCAdm7pz67gQYLO9ays0ssoTvbVGCLvVK2r+eZKnixTsmPLqAvluyltJyHahGLW8MiuPVeEn/PuUW5KaeBdA+HGHh8W6CE9igW8N6NTKXRbiJdaaADtgSy4ErmwUcgyVLfE2beQbtc7xTOjRwJxFksBbkolTD8QJqDn2oY7uW1KFtS8Gf9cBWMtermumKn7I4/dl+W/KMyzPT/3t3qRJylVxzXTzMP+NNyYkIR06mUviBo4AKiqBYoJfno+dHEVoMSHallBKglg4Zl1oYaOrMxId0AAAgAElEQVTnxBNOQ+Zmq15AQe/boyM9cGc3cXXwtXnvjZ/+MW3fto0+nz8PAkpdg7/7dOFvtPDb79GI0xVtY+qIZpqamorNm4Mu6B4oKahPAfi8FjIok5OSaevWrWjzU4Mmjx8FPMy64m4TAabNI8Ois0wHWz/GH2KRGrEh2+kS1sIC0vhC3Fz/byFXNruo5JKVebq2dHQsLgcfDBsxDUyuiGZMHQvmphm/gue1otuodPPYtCJ6fuBw6turBw16RikiInCNOTAzOrb6Rk1bQLEo4fhwzkjQCFFMXCGdjomnGHSMTkxMgaKSDsgkhpoqkqzYHDDibKStt2jRBNZbPerYsgE1RhcLtna4MxQzae57xn8z+PT3P/2JBpg/QqgWUk9Ad10DbENfH2+xvjlZ5zTirGdOn0G/wWhJquD2P2z5NGvejK7v24eah9RWNAapLE1SL72+UmI9RA4ZnwJaFvWqf2FeUcLj5i37iBuPykvGorwO/G8p05FVsYJ+iZtXnSZDZwXSCedJQhLQSFJT0dgUz61hzFQMW+fzSrdIqVc9D4u5EC5hVCNSc7Tmuebqq6g9OjRwhY3O57W1fM1UW76A40Fehsm9lJvlX3qtKiFXyYVTbkyDkZtolAk+Cd7LE5HAC4R76jQAX6ORHMHNFXOA9F/ATItdZZq2cQ3OsvNDBlaTBkF0NeCIuraqI5osZ/cx/bPr7AB6hwx+dSTdf89t9Nwjt4m+KvsSr6NnUujPteuQ6JAh6eneXl4U1iBUGlz6QyDqfnQsLI/HZdObb86g2OgzSKefSs0b1LbEbYx9XpL5cBGraSOat2TJWjZ1pkZaqOS02pz+dwm5ktfVQo6tNWeo8DsPx9DYsRPp2ScfpLtv6S3jKmILwhBv1tlXSsLuIzE0auwkGjb4Jep3jap/4kMUA5unYiE0acYCdJI4Tp+8NxktldQJuk0MW1iAnUQc7wIK0NHTHij6p88myrpdc3U3GvHSnZKhp1FcZOz4PylCBhPXVvfxmExatHgJbdm2Q9zLCqwAlhsyBjmW6scdy5FQw010Ob6agpjnvgNHUEOZIiACTz18m1iInHZv7QZurq7Ttn7xJ7w4ls199lR9GUql6ctf9tL+E7Hk4RsAZVEhx1RnAafSs4xZtRUnhpAzYt/qW5WxrNyNhagLzRC0m/P4t+4yYkhBcUPzXmPrNQceFe7b5+fpQq2ahgBQoQ1wIkPEFcl7T8VmjRIUQ5cp87ntGXB8jYubLBuKqvqzIjNQJeQqMksmxmWFyTGo1FB2bWmW43dxyRegocMllZoG33+6aNKaATLkj6+vHzVpFEoN6sDNqe9hUg+1QTR2+id0/Ogh+vDd6XArMZqDSoCoSIG03mM8vlSYEgMHj5GGjHNnv0m1AX+uExSsgs66K61I+erphMkY3FsLB+v0qeD8lb537Qkf6ZWGF8ucKe9+Tfv27qV3Z06mAKjtkiBuySZSTFYbvcwUGeh7/sef0sxprwNrVNUW2ruHnqf3F66iFSuW0vuzplJ9NO7kmjx2l9kaTZqh8pjeX7iCvv/+B1iWE6lLq1BZMy3QxGg03GyyRgaKDv87Jr0QwusQ4pooIYEQ9EK9ZwiyZdnt5slgxSbaRwiRFi9ZR19/vZDaoi3L0CED0HATPfbwNJrO1HMZ4NMGJqvGStTXqtz6K0QRdtOylfvH3mRa/Md2cvbwl4J7jrFxrExc+4ags7ddRcSpiVB0qhFNIKTzYLVloOSEMSX5awZEt8R0JZsZViEiz0V5KBeAgPNxd6E2zcPo6i5tAfRcl5RzXykiKnFLzYEWuOWWAlQJOXtLdlk/qxJyFZxuTatmoWH7U73By2JyZd1ODAbZpdYX/3NzeBSNGz+BXnn5Obq179VKo+QNx4kLNmKl2L1VoAzIHCq+xgxzf1QKDRoynK6De23c4CctCPTsplHMzMSmbDmW0TJb5sCQd+bn0cOu4JRe1tO01cPjLm2cS9bvhtX0Ng18/ml66I7rlNYuDNS+C5bn6815X9HBffvonemTEJeDUDS0fNuH0+vy586TyJCdRqOGvUx9urUVgah/w+OyWGeG5cDWeCI0poGDhlNQ3dr0xvjhgkMp3gTLTbS9re7Ca105YWMd7dGoRHR/ngGggJo0+fUx5IubiSIkc6BKZtTFi9/hYoScqjBTY91zOo++W74JiSaAyuNMSrmgymyUDEmGMinlqVgJYbcrC1yOYXI8nOPGySnJgMlLpWr4zkkjkYifUz2v5HAigzknM4WqF+UiY7MFEFS6Iw7rTxzp04kwOk4tyg3PgMyFtixLJ+OLXYPLujH+B25WJeQquMilKWQlt3sFL2g+zcSBLffhDcUaOzZkGlxYg14dTT4+njR9ykhJbtDtdJT1pOISZiZgEbiGFSK3MATdT6u20Zy579HEsSPoui6tJIPSKuRKG3/xLVua0L9SN7buKcduKT4ORyZIC5ps1Edxq6PomFhaunQZdevUkSaMGih956x1kMWFBmd9cvYp2+UDX55AzRuG0IhXnhIWXJ6QOwkUliHDRtJ113anV555UMZi/o3oJfyZ8eLu8SzoPvr2d/p50SJ6d8br1Dws0OZ3ttSpxaV96jSfrXE0hEwMBSAGLcMnT30L+KzONG7Ma7D6DJxHHpvFWrK6L81rXpn118kmcXDzL/x1K0XGn0M3EC9VAmBEhHVLGyXk7PsudESOhZATBBzH3JIg4LiomzcR51qq9jhKSElDUzxHPtBI8jITYIEH0nU9OsF6a0G+sHBVnFnvJr0SslJq3nmqqoTcRTC6f+YnVUKuEvNenDlU4oflnWrDo8wCRLtDPv7uN/r2RzC5t6dRq1Duf6cuWl5ugKoRUwxM0qsNd9bYNz+k/Qf20QdzZ1Kgd81isb5iwy0uOy1fmbe+mZVWhsmVNy2X8ns2ktmSjU7Jph8W/YrmobulCzxr/ZzcwYyvB5pJ3n/XTVQLWgQj2Gh3sagRxoNpfYTnfdWWozRjxix6fcyr1L1jUwMFx8hSLWXwGdAoxr8+W8oBZkwdqVAwDJecvoml5Yuh6PC9dxyOownjX6dXX3oC1kYXdXVTgovBf613lfGaKam4raW/Ma+XWdAlZxXR2AkT0c3AA7WawwEzpy5tRvWxfcTKrD3fn4UJ5BstWx9Ba7cfJhf32gaAslXI62Sfsiw5sQexIAydlg20m7jYWIHLc0JIQNyLnGXFsT2BJeF/I8MyEzB2Lheof69OdEOvrlQXVQg8Ju0KLi5OrfOo/qWeVKk+tgpGRam2MrNV0WtWnWdvBqqE3JVMFyYBw27Gl4eOpJv796Xhz95fYtTcaicx+RydPn1WENLDwkKpnr9G+jDh7BkF3/Hp52nQK0ORgelHb08boxDRLdvXdHl73NA411boX6nblq0Cdi7Fok7tzRmzBfbr/nvvpoYNQiVDrxAJGTWBThLkz8igqtBbnsUiKKxCTk8SC81BI98WxIu3p44iN0gr6RnGP7IEzIx5NE0MM/bZH/1E+/aF03Rkb9YBCDczXSNtx27hNs/zfkCJjR41hp5//D66rX9PdWGzVJK/7RCzaDiVWykNcH0GrZtmvP22ZOkOGTTA0r5JW56lkEaZO0qEm+FC5xMPxBTR17/8KfVwjgBSlnZFxUbM2Y4q7cSeu1I+5VIcCLqsTCSXoK6SE02kFs64krhZDUFXhKzJXMChtWwYRHff3Ju6tQkS5UciBbhxeUpjmQ9X9eUVOQNVQu6KXJbig+JNz5l5H325GPVbC4FfORQgyl25jAf9nFJpd/g+2r17L0VGREnqt7jZsKnvuv1meuL+/nIxQdgQtybHbNRmDj8aQ2PGTaCrrmqHoucBqq+a4d4sVgZgR/pVnnX+MxOtUdylvnDOfKCiZNLQVwaSH0Bz7R6mB7O45rQfzzQPK9bsoTenz6KJ4+F6vLqVWHHiwDPwT0vIFdPN3luwgrZs2Uxvvzm+wkJu076zNGXyFBo5+Hm41tqrq1ka8prMTNuHugghJ/RiMPzE9HM074OPUPzvjIzTx6i2qej/YoWceCEw5Cy8LUA25ZFTKPhHwXcRJ5cYnoZiYpnHYhZy+JvXVYq+JQZ6ATWhqZSaDAGHonnOqOTTlQufsyzZm4EuHOkp5Hghl/pc3QGZs30o2NNIorERn1eqsvbP7KB//12rhNy/YA21VwpA/DTjnY9ow6ZtFII6ON6M6YCyYncXY0x2RYFx40aNgJlYi/7auJl+/PEnuvH662j4wEeVY8WoP5CECnzAGuy2fRH0+uSp1Aqdo8e+9ip5uFYkZ7MUo+EKnEstl7bsOUhLliyjwQNfogBfd6u1ZmFw9t1O8nuVUmc59h2Lo1GjJ1Df3j1p8ICHlXIgHZj5POGuOgAkTFYd6hqMhvLKMCCjoL5x+uRXjZ5inOHHnFjdxNbu4r8XLttEC6HgzJwyhlo2DlJnWSw50+BsH0O3dy9mp1eAjZsEeg6KrpcuX0lJCfHUv29vKVO52EMsOeO16UgGLVq5maq5eCDBEq2LJNtEzVPpQk4NTHdbYK9FZmY6paAjB7ffUdmeCh+UzxQBhzrU3IwkquNbi+6+tQ8QYRpLYoluKGxKSNUrdbGPV/W7K3AGqoTcFbgo9oakBR2jQq3fcph27NglmmpIaAhgjtpQSLAX1bThXau2HqLRo8fTywOeo8fvvl4uK5iLOE+K2tmiw/vxM+k0HvEeZ1Q+vzLoRWkLog/ptqB5fAmDQX1QAZb5j84yp6f/+NNydCRwojvRWV0lnYo5IO5FLVoUY1W+ShFszHSF71qf8OTZNHp1+GsUBiVjxrTRUl9lKazXpwkfNtg0M1txESvlYcEv62jOu/MQj5tA13VrrWKhNhmZtkKOzxnz1sdo+nqaZk8bByvUgIu2yM+yhBzf1faK5SyHScCZzzx+MhII+znUBH0HuS7zYg4WLDyt8cgJ+eKnLRQRk45WVn6SZWmhJFswAbHk1KE8DArMnJdQLDgkmYgFxxKNdwV7MhhEGXNeiHZEeWnx1KZZMD316D3UlDsQ4+DaPEvM1TR9VzotX8yc/6//pkrI/VsoQHleSkswszyFIB+x8DK4wsyPf0D9E/AuP5pLjQO9lAWjNWVmHsZ5wBGmN956l/bt30e33Xoj9evTk0KDFMCxPjSr1C5AHtDFJ6tfvonnzt47d+1CCn4dahyGljvsWrSNm9k+qdYqTAw3IjqDRo4eB6xCH3oLQoqBtHVfU8WADT5tEnLqXmqSf9t4gF5DofnDD9xDw194QD4TZcNmKizzzOuDa6KjEr3wyhhq3aoFDYflqMSLEtJy2BEKFZ5de1zdcl11lUuJjs9CDoBAtHZvEi1Fd4FCB1fE4tA5QO5pQML9X3vnASdFtazxulfkkgQUJUhQrwEFEQMq5vQQ5YGCCCooKOg1J0RAEUQUfaIPAyJ6MQKKzwyKYnqKgqByFcM1YI6PoCsIu+oi+Opf0z07DLO7M8vOTg9b7W9/Ljs9p7u/c7q+U3VOfRUfoMHj2Sexm7IyVkpmSJ9RA3G55qAiomy6oglrcPDdb6tWyNpClco7sL30693F1Eps7S2R4FLAlzZ2fmJeIOAklw/dZO9vguVJZRUTJ+ucbt5ITHbs9LOHStudd5JRgwba04YbK+K2McHQzXp5gXo9jxn5ddDyOu123dWqjjfZUqsrJ2FlW7dtF2Lg0SUb2whgC2wILBej9qE5VDzXeqosaTg6lCAaNnyU1rCrKWPHXK7VKQIcefTg++uQnFnkEpdo+v8ukGu0gkT3Y7rJsPNPiW12CEgsmWeSSY50h8uuuk769+srPQ7vEAQeITn9iV80AeyksVBmN6RBcpXZjdyaVjGSqdMXqpqPrsXVUfHlsHoHHm8QGo5HWe3isZ2u4Q9FTJGwo3KA7ZrUM2IkF0QndKa3omCJ1PzzV63Efbj07doxFlIOXqPk7i43obsyAfC2qhwBJ7kqh7wCFwzfztADizcRkEvizDvhd9s2r6c8O/d9uWnczXLjtaNkt9Yt4y97PBLHd3ApAhbTGqDyyux5svDdD2TlL4XSoEF9adpkK2moIsR1am8qdfWHf2/bahszSpEmuQCrMsNQSZ5Lqh568IkX5GWVULtelU22UNWZ8Ajz2pKimus08dqCRTJEPcBevY6TQcHO2ETVktJ4xvIk9cPnZy+QSZOnyaWDL5Z9dmlR4v0F5WRiF8ufQNvnBX/K1BlzZMkva6VGLV0fDcgn9hQl4l0lIMZIroZqdBZraZylKmyNwLJV4uY/xaEGuW94dOqrrfp5mSoDbSJ9ex4tnfff0YZ1uJEmmehAzUmuAjYpj77iJJdHnZXRrerbHK67kew9csx4lTgqsmRyXvoSH6PsVr/69mdNlP5eZZEKdR3jDw0V/alJwrWkxdZNpfnWWwdLVusa2A0XaM7oSbNycnwtUq1rQWGxjJ94t7TVzTnHdznMrpfKWUpFM98tXSWXDhshB6hQ8nkDetl3U4Uoy3qIJ2fNlkenz5TLhg7W2oKN4zmNsfy6knWqrACRhUb/9dUv8uDM+fLrn/Wsxh4VBWIcHSuJE0Z9bc1U8Wf9rYZWSihSMfPFKm79m0pwQXqxOoycrSSnlbrXFhdJ0S/LpF3rbaTvcf8puwd1GMl5LNHgjD1QjOyCOnFZeEZvMjoIOMlFpy+yciehmO/XWup68JBh0qN7V+nT4+j4tdJwYkq9L0sMTto0YaYqgmHLTMENk54JbRZoEbj7pjwkO7feUbocul/MSAahwkT8UpHcvdNmyPw3FsjY60ZLA10TCvb9lOt3hdFpoJz/zsdywy0TZPCgCzWva4eYzJaFScMQXf54cWD31pcrdLfofPn9L/WlZq26Vv4GlROOOMkFz8jmEdZPV6qu5LJlS5QQtaacLrhR9JQCuZDcJorq6qLlssnaQk3KbyO9uh8l2zZQjVfGogJu+1H8qLYIOMltzF0fWOBwk+DMl16Xu++9R8aMVimqvwfVrjEEwU+pUARuX2h4S7wYSK5k30Ncg3GjITnCZGpMFZhnXpwty3QL/YA+veObIEq2Q5SO4fW33CMNGjaQf/TvGeQhrr9PJBXuhjXYqoH+uXCNXHDJ5bKPSo6dP7C3nb4m8OJsUhFu2MiDscxjfbhEJw1PvCa//F5T0102s2oHtoWJdTdCtJAdAuT6Bwhw2Y9LNWy+3BhwUxVYtjU627W6xnZ7Fheu0DJUdaXrf+yv9Rjbi/KbFIft0FbiIM0DjPwWKxcBJ7nKxTNarQWG0v7Hep7+TLhzsiz6dJFcPVolm+qokK1+yLpdOpPd+N6XdZ5y3cDdxuDF8XihUn1MO/Iv8plW+J47Z470PPYYrQxdK21P7qbbp0iDzRtK/5O6iUZ6A+bK3POapqogDz/yiIy7YYxs13wLXXnSUCVetJFDOr2X+6EZhsh/1JyOSQ/PVa3KX2WzhipRR9V2Np0EhG3srn8rKlxp9d9+LSrUMLn2w6bUlNNnVsFlK4mj6QH1ateQfXdvI906HSw7taxrO0+tiniM/eMbU9bbgVoGHJW5mzQT1HN13UzuMR/PjRTJWa02pJEqaTODGaqEcFqiAS5rQHEP9o5EeNdgmYMttCYByXGu1QbThXstQi1jx91qrDZ0yAVW2Xi1WgVbuM/HEZzFewY+85iURMCPmmT16tTWmmw1Y2tyCR5rad7wjOfnykcffSyn9z9RqxTEZMMyOcKu/F1/GTlqnFXxHjH8QlHN5NgaaVA4NJM2c30ub9frnyy3RHAtjSp1N9tCKfuvVnPxj9VajVt1J5Ho+qP4N9P43MSqH+hnGqpcs1o1Kf+6VhppSZzW27eUg/bbS9ru0NgKDXOQQmPdouM7niufwQOHNoNNLZkcyUpByXasrLbCa3IO102scr+xTBozwbKyz40UyVHxlwO5nvAoi4zSmfkknxMOvpiNKt+sx3X6khN2U6xFVXbnVLi9FCQXb0vf3RVFa2XcreNlcy2eeeE/+seW7n0Rfj24Y3OEMCRbMgkIjVC4jmRjKfiJj9vg31/88LNMnjJV+vftJdu1aFqhLg2785vFq2To8BGWZ9e10wExYedUKQQVukrVfCmcd1mC/gv/liefmS1//ZsKZdesq6kelMzR9TWtDLFW19vUcVOSU6JTxZJNlOTqqtfWcuvGsusu20vHPVUAoUktq8jBYZOOMP/NXutYiaT4RKSK3tdEgkrXxoTIm/ReCnJNx85VTe/l51UiQ3KJHfnll1/qrO0P2XbbbddTVkieMVE3avny5brjr66J7KY6iouLVbNQZ+H16kmtWvguwYtRxsA3FXNVdUgkXK5Ffg7VlGvXrq3rBVrDioXxNMiySodHGSRnH6nxKFi1WiZMvENaNm8mp/Y5PmYoqsgQVCkWlXix5Fl+gqOckuS4NMb8zkmTtYxLB60w3aZCdxN2J1+e+viLMn/eHM3VGyl1asZm/ZEbf+U8ZZg+QWHh6bMWyqtvvCffLimQ1foBm0zY0o+STB1V4GlYX4WzmzaSls0aqefWSgmuldRPSNi0mu0Jgtolr2JQ+46eCSI66XhnpRFNeR33owpDY1uwMan6JPlvif/GPmFnSrQ4WYtco8Vuf9T0nQbWbj72c3mYVdXnkSE5Hvh3ncHdfvvtsmjRIq2dtoUcd9xxstdee5WJxQ8//CCTJk2Sbt26yZ577mnnJg/U97So5YMPPih9+/aVdu3ardMeA4zBtLVuh088pk6dKrvttpv9hMf/aQmPO+64Q0466STZeeedU14rcoNx3SWzQBMilhv088pf5X8eekjz3VpI586dPFyZxluX2L9J0KbEj9Dc7DnzZAvNNWzfrm0aV1j/FCNTNlJon325eKXccsvNMqDfSVrBeoe0d2tW6MJZ+hLPEqa34HR9U7BW/r3oC60Bt1zTA7S+nybt16tTyzBr1rSxpqvUlXpsSkm6n3CJkz/HP4v/EuudWHWHEm+8vEdigj1H116xPUycyyKnxLZGjBghRx55pBx00EEp7QJ/ZJK8THP8km3Nk08+Kc2bN5e999473uTixYu1gO9/yUUXXWST/VR2rbxnsecPFtLzbSKUzrOle06kSO7KK6+Ur7/+Wvr37686in8zImFm9Pjjj2vpmL/LPvvsY57Ut99+K++884507drVZj+XXnqp7KDCxAcccIDsu+++5oG9+OKLsmLFCunZs6f8SyWdRo0aJaNHj5Y99thDpk2bJs2aNZNDDz1UHnjgAZkwYYJcf/31Nsg++eQTKSoqkk8//dSuxz28+uqrRoRNmzaVh5QUdtxxR2tn//33N09uyZIl8vTTT8vuu+9upMwA5R4g6m+++UbFlLeRQs0ze+KJJ+ycXVVFJCrHylWFsmDBW6ZssuWWW0bltjaq+1hVWGRRszrq/VfU2MQ3bWidt4l3TJSDD+woh3TsYGTBkdkKUjTgTfRQo3FHmq4xf75OIm6RW2+9VbbaKiZrxzv8wgsvmD1gkowNYnK9cOFCswHbbbednHHGGbL99ttL+/bt7bxGjRpZTbvHVD0IUjvssMPs/f9vLV00fPhwsz2ff/652QXsRatWrcymvPbaa2ZPsGc33HCDHHjggbLLLrtYm0SqIMmZM2eaXerYsaP9m6gX9uy7776zdxhnAeLEzpTnJEQF92zeR2RI7quvvpJzzz1XbrvtNhs0HHTeP/9JeRStE6UD6/jjj5fnnntOOJcBCBkx07nuuutUCUGXsJUYGShnnnmmPPPMM/Lss8/awOvUqZPcddddRp7M0hi0hDh79OhhZDZy5EhV7H9Eli5dKpMnT5ZzzjnHBg+kyUDEC+R3Bsydd95p4UqqDh988MFGtNdee62RHXXKTj/9dBVPfssGZJ8+fQTiPvroo+0lYUAPHDgw7gVms2MzbZvwSGJoNtPv+/nlI1BRjFl7gyX5b9HXS+QBnWgNPPVkadWkUVDVPT9JrnzEqv6MBQsW2DvOO42N+eKLL+TGG2+0yTY26Oyzz9ZagO/ZpLZNmzZGSJdffrmRImTFeXhlQ4YMkXHjxpn0GPaLSBN25+qrr5abb77ZbAETZsiRyTjkiU26//77LXp01FFHmSeHHSEyxeT95JNPNlsHidEutoQ2sVV8Nn78eLN/8+bNs8/79eu3TiSq6tGMxhUjQ3LMoG666SYjNeLQHK+88orNeggz4k0xm3n//fdt9sTguOyyy2xtjBkTsxpmMYQT8cogpylTphjxDBgwwIiH2DaDFuLBY7v33nvlmGOOkeeff94GCAOQAcNsa9CgQdK2bVt599135cQTT5RDDjnEyPWKK66w9vDU8AIJJTCDgpwnTpxoXiaEy3dPO+00O7d37942s4KEx4wZYy+CH9UHgQ3ZjJCI0m/Fa+QxVT7ZsnFj6XRIR/solKvKR08uiiMAO8GEGIIiXIlNYEIL6bGUQjgT+8TfeJeHDRtmRAQBQkT77befTZqxUW+//bYRJhPup556yibbRKCYmENmtEW72D0mzp999pkcccQRFirFU7zgggusfc6DuIgk/fTTT2bf8Arx6CBaJthMzIcOHWrXmD17tkFL9Ar7GLkllCru+MiQHLMZyOCUU06xWQkHYUrIA6LDnYekGFh05LHHHmu/Qyg1atSweDiEw6DBlWfQQTRz5841l/+DDz4wTwVvjc5n4ECIeGKzZs2yATx27FipX7++nHXWWeZV4u4T6uR3Zkh4fQwwBinnEU6AWPEo+fvdd9+t28U/spkXIU1IjvW7iy++2Lw+noPZGuEQ7tkPRyATBFZq2HPpsgJp0bJFTCBav0zytCVRZ9JQnpybi3Dmm2++aZNV3ufGOplgQlxTU0Z4d3m/sSN4aoSdL7nkErNB4eY3IkO85+edd56FGyEtlkKwLxDd4YcfbuFQ7MfDDz9sNgBywmbxO+czoWdCjX3CboR7FIhgcXAvV111lYVBaZPwKF4b0Ssm5thObCGTcU5wl6oAAAg9SURBVCb4PAeT6+p8RIbk6ARCerj9DKKWLVsamRGjpvM7dOhg4UoGHWRDGJIOh5DwyHDvWfuCuBhgr7/+uq2J0dHdu3c3sjvhhBNscLHuBzlCqgwSQox4hqy7MfPB+2Igcr3vv//evEvuhY0tL7/8snl2DBxmY4RAIWKIjdkdgxbSY+C2bt3avn/++ecbuTGbYzZ2zTXXVHhtpjoP1ur+7JbrGFbOtr0Urr1Y2WPiww8/NLJgTY33HfuA1wSRESYkDEnk59FHH7UlDCbThCvx/lh3I6JEhIlQIkSER8b32BuAl9arVy/z1JhwE76GnNgrQJQKu4EtwxuE6IhEcT1Ckiy90CbXwSHAnuC5QY6cgxOAl4c95HqEQrGHTOgrWvuvsrHNVXuRIjlAgIBwzSERZiTMmNhEgkuOR8bsCS+JQcGCLAuuhAghNEiPjm7YsKFuplhgcW/i24QHGRgsADProT3IhkHKQQiB9T8GBa49sXh2UtImpEfYFA+Qwcc1aI//8zcIGSKD/Iir81JwQM4MWrxBvD7uh8HHgnNiGkOuOt6vm58IJAocVHQTS34+edXcNe8o0RiIhXcfm8PkFxtAOHKnnXYyrw7bQhQIcuFv2KDNN9/cQpwsX2AXsDVM3Pkd2xHaGv6ODcPG8R2IEBtByJI9A9gTdmnSv3iT2BHW9WiHdT/uhWgVm9hCW4N9g5SxfdhP7o+JOc9Q3Y/IkVxZHcIAZNEWomDAJR/lxZ7L+zxsL93zqvvg8eevegR8S3j2ME/nvcejYy0eMiFCxFHRDUUb+iTp3G8myisbej9R/X7kSC4xx620TlwnVylIhs3Vy59uHk1UB4DflyPgCKSPQFztJrA7eFvpkE2mE/J07qgi102n3Y3tnMiRXPJONAAvKyxTWTvXNraO9edxBByBiiGQ7oQ50fZkEjpOVs6p2F36t9JFIHIkx41nQlyZnJsuKH6eI+AIVF8E0iG5DbE7TnJVO7YiT3LlzZA2ZLBVLdR+tagikE5YPPHeUxnBskJHHlaKas+nvq+qILnyIlT5hVi07zaSJBdtyPzuoo5ASCrskCXvid2yJOeWdaBcQboJqSnhEbbDOjFCAOyE4yc82MFG8jBKOOyMC0s0JQoBV1TwN+oY+/05AvmCgJNcvvSU32fGCJBHREoJOUmQF/lEHJBZsuoMW7dRuyHpHwEAdvCSK8VBThJ5UXwWagGScgIxom6B1BN5nIkHBMh28rIO8irJc6rueUwZd6x/wRHIAAEnuQzA8lPzBwHSTUiM5YeQN+o0pJ98/PHHJntEEj95k9OnTzdZOHIkyYtENAAVC+SYyMPk3CZNmhgZ8W/OueeeeyzxnzwkhAL4Gz9oldIm3yHxH0JEgACVC7zJFi1aWB4U+U3kVaFY0blz53XU5/MHYb9TRyA/EHCSy49+8rvMEAFyl5BXIlEXT4nEfQgIzVJCiyTgkueEgg6eWJjcT3IvWoIoT6AaQeItorgzZsww8QDUdyBKCA1BAb6PAEBBQYF5hwgYoICDWg7fQYmHa+JJ4h3i+UFsYWUN5Jc8YTfDzvXTHYEMEHCSywAsPzW/EIC8IDNEuFGBR64JlQlIBuFtiAf5N/QBqUIBeUFEqNcgvYY4Lh4eau6QGd4aHtjgwYPtu6hMoMBDLTFIFbV6CJQfyAvZN65DaJNKFKhnIBeHF4mqxRtvvGEScijllLfBKr+Q97t1BKKDgJNcdPrC76QSESBcCTmdeuqpRjAcrNGxvhYK6OKlEZZEzxTPDY8LQkSoG5FedAIJMaJVCjlRbxDdVDw4hHTx3jgXQmSdDw8QgV4qZkCEtIF8E5JMXBdpJ8qnoFWIh4emKR4mRX+RdfLDEXAEKh8BJ7nKx9RbjAACyC9BHmgAhtXg0SNkPQ3tQDw7yOqll14ygW52YaL8TggTz4zQJOFHvDLI7b777rO28NggMypeQFQI+nbp0sXW9dBEpYoG63QU1KTQL4QKyUFueJGs73E+eqmcg1fJ2p57chEYNH4LGyUCTnIbZbdW74cK85ySt+9DJJARHhvC3ojfcoTnE1Zk/Y6dkaGgd2LibphSgFeGBwbRsZYX/h1iDXdKsnbH+h6fc6BWz7W5LgdhTw6qbYT34ERXvcetP312EHCSyw6u3mqEEAiJChJJRSSJydqp8trCz9NJEk4W66U9vlda1fUwt660e4sQjH4rjkBeIuAkl5fd5jddUQRCwgu/n6iYQxJ3ad5UIsElk2b4WVlkGrZb2rnuxVW0R/17jkDZCDjJ+QiplghUphxcZbZVLTvDH9oRyCICTnJZBNebdgQcAUfAEcgtAk5yucXfr+4IOAKOgCOQRQSc5LIIrjftCDgCjoAjkFsEnORyi79f3RFwBBwBRyCLCDjJZRFcb9oRcAQcAUcgtwg4yeUWf7+6I+AIOAKOQBYRcJLLIrjetCPgCDgCjkBuEXCSyy3+fnVHwBFwBByBLCLgJJdFcL1pR8ARcAQcgdwi4CSXW/z96o6AI+AIOAJZRMBJLovgetOOgCPgCDgCuUXASS63+PvVHQFHwBFwBLKIgJNcFsH1ph0BR8ARcARyi4CTXG7x96s7Ao6AI+AIZBEBJ7ksgutNOwKOgCPgCOQWASe53OLvV3cEHAFHwBHIIgJOclkE15t2BBwBR8ARyC0CTnK5xd+v7gg4Ao6AI5BFBJzksgiuN+0IOAKOgCOQWwSc5HKLv1/dEXAEHAFHIIsIOMllEVxv2hFwBBwBRyC3CDjJ5RZ/v7oj4Ag4Ao5AFhFwkssiuN60I+AIOAKOQG4RcJLLLf5+dUfAEXAEHIEsIvD/0YLDZ+nqJE0AAAAASUVORK5CYII=;" vertex="1" parent="1">
          <mxGeometry x="-260" y="50" width="340.64" height="169.93" as="geometry" />
        </mxCell>
        <mxCell id="y6JtuTmop7p5IL-v1rAB-12" value="Pilli/Fimbriae" style="rounded=0;whiteSpace=wrap;html=1;" vertex="1" parent="1">
          <mxGeometry x="-80" y="430" width="120" height="60" as="geometry" />
        </mxCell>
        <mxCell id="y6JtuTmop7p5IL-v1rAB-15" value="protien adhesins" style="rounded=0;whiteSpace=wrap;html=1;" vertex="1" parent="1">
          <mxGeometry x="10" y="550" width="120" height="60" as="geometry" />
        </mxCell>
        <mxCell id="y6JtuTmop7p5IL-v1rAB-16" style="edgeStyle=none;curved=1;rounded=0;orthogonalLoop=1;jettySize=auto;html=1;entryX=0.56;entryY=0.058;entryDx=0;entryDy=0;entryPerimeter=0;fontSize=12;startSize=8;endSize=8;" edge="1" parent="1" source="y6JtuTmop7p5IL-v1rAB-3" target="y6JtuTmop7p5IL-v1rAB-15">
          <mxGeometry relative="1" as="geometry" />
        </mxCell>
        <mxCell id="y6JtuTmop7p5IL-v1rAB-17" value="Capsule" style="rounded=0;whiteSpace=wrap;html=1;" vertex="1" parent="1">
          <mxGeometry x="340" y="560" width="120" height="60" as="geometry" />
        </mxCell>
        <mxCell id="y6JtuTmop7p5IL-v1rAB-18" style="edgeStyle=none;curved=1;rounded=0;orthogonalLoop=1;jettySize=auto;html=1;entryX=0.56;entryY=0.017;entryDx=0;entryDy=0;entryPerimeter=0;fontSize=12;startSize=8;endSize=8;" edge="1" parent="1" source="y6JtuTmop7p5IL-v1rAB-4" target="y6JtuTmop7p5IL-v1rAB-17">
          <mxGeometry relative="1" as="geometry" />
        </mxCell>
        <mxCell id="y6JtuTmop7p5IL-v1rAB-20" style="edgeStyle=none;curved=1;rounded=0;orthogonalLoop=1;jettySize=auto;html=1;fontSize=12;startSize=8;endSize=8;" edge="1" parent="1" source="y6JtuTmop7p5IL-v1rAB-19" target="y6JtuTmop7p5IL-v1rAB-17">
          <mxGeometry relative="1" as="geometry" />
        </mxCell>
        <mxCell id="y6JtuTmop7p5IL-v1rAB-19" value="Polysaccharide layer surrounding cell" style="rounded=0;whiteSpace=wrap;html=1;" vertex="1" parent="1">
          <mxGeometry x="340" y="690" width="120" height="60" as="geometry" />
        </mxCell>
        <mxCell id="y6JtuTmop7p5IL-v1rAB-22" style="edgeStyle=none;curved=1;rounded=0;orthogonalLoop=1;jettySize=auto;html=1;entryX=0;entryY=0.5;entryDx=0;entryDy=0;fontSize=12;startSize=8;endSize=8;" edge="1" parent="1" source="y6JtuTmop7p5IL-v1rAB-21" target="y6JtuTmop7p5IL-v1rAB-19">
          <mxGeometry relative="1" as="geometry" />
        </mxCell>
        <mxCell id="y6JtuTmop7p5IL-v1rAB-23" value="&lt;div&gt;serotype B&lt;/div&gt;&lt;div&gt;capsule&lt;/div&gt;" style="edgeLabel;html=1;align=center;verticalAlign=middle;resizable=0;points=[];fontSize=12;" vertex="1" connectable="0" parent="y6JtuTmop7p5IL-v1rAB-22">
          <mxGeometry x="-0.0692" y="-1" relative="1" as="geometry">
            <mxPoint y="1" as="offset" />
          </mxGeometry>
        </mxCell>
        <mxCell id="y6JtuTmop7p5IL-v1rAB-21" value="Hib vaccine targets" style="rounded=0;whiteSpace=wrap;html=1;" vertex="1" parent="1">
          <mxGeometry x="90" y="690" width="120" height="60" as="geometry" />
        </mxCell>
        <mxCell id="y6JtuTmop7p5IL-v1rAB-25" style="edgeStyle=none;curved=1;rounded=0;orthogonalLoop=1;jettySize=auto;html=1;fontSize=12;startSize=8;endSize=8;" edge="1" parent="1" source="y6JtuTmop7p5IL-v1rAB-24" target="y6JtuTmop7p5IL-v1rAB-21">
          <mxGeometry relative="1" as="geometry" />
        </mxCell>
        <mxCell id="y6JtuTmop7p5IL-v1rAB-24" value="Hib menigitis" style="rounded=0;whiteSpace=wrap;html=1;" vertex="1" parent="1">
          <mxGeometry x="89.99999999999999" y="820" width="120" height="60" as="geometry" />
        </mxCell>
      </root>
    </mxGraphModel>
  </diagram>
</mxfile>
